<?xml version="1.0" encoding="utf-8"?>
<!-- Generator: Adobe Illustrator 27.5.0, SVG Export Plug-In . SVG Version: 6.00 Build 0)  -->
<svg version="1.1" xmlns="http://www.w3.org/2000/svg" xmlns:xlink="http://www.w3.org/1999/xlink" x="0px" y="0px"
	 viewBox="0 0 500 500" style="enable-background:new 0 0 500 500;" xml:space="preserve">
<g id="BACKGROUND">
	<rect style="fill:#FFFFFF;" width="500" height="500"/>
</g>
<g id="DESIGNED_BY_FREEPIK">
	<g>
		<g>
			<g>
				<path style="fill:#3A79AD;" d="M180.307,476.67v-0.16c-0.217,0.248-0.432,0.453-0.645,0.607
					c-0.211,0.158-0.44,0.275-0.688,0.355c-0.247,0.084-0.517,0.123-0.81,0.123c-0.389,0-0.749-0.082-1.078-0.246
					c-0.331-0.164-0.616-0.398-0.858-0.703c-0.241-0.305-0.424-0.662-0.549-1.074s-0.188-0.857-0.188-1.336
					c0-1.014,0.248-1.803,0.742-2.369c0.494-0.566,1.146-0.85,1.953-0.85c0.467,0,0.861,0.08,1.182,0.242
					c0.32,0.16,0.633,0.408,0.938,0.736v-2.389c0-0.336,0.066-0.586,0.199-0.756c0.132-0.17,0.321-0.256,0.566-0.256
					c0.246,0,0.434,0.078,0.568,0.234c0.131,0.158,0.199,0.389,0.199,0.693v7.146c0,0.309-0.071,0.541-0.215,0.695
					c-0.143,0.152-0.326,0.23-0.553,0.23c-0.221,0-0.404-0.08-0.549-0.24C180.379,477.195,180.307,476.967,180.307,476.67z
					 M177.12,474.289c0,0.439,0.068,0.814,0.204,1.123c0.137,0.309,0.323,0.541,0.561,0.697c0.238,0.156,0.497,0.234,0.778,0.234
					c0.284,0,0.544-0.074,0.78-0.223c0.235-0.148,0.424-0.375,0.563-0.684c0.142-0.305,0.212-0.69,0.212-1.148
					c0-0.432-0.07-0.803-0.212-1.113c-0.14-0.311-0.329-0.547-0.569-0.713c-0.24-0.162-0.501-0.244-0.787-0.244
					c-0.297,0-0.561,0.084-0.795,0.252c-0.234,0.168-0.414,0.408-0.543,0.723C177.184,473.51,177.12,473.873,177.12,474.289z"/>
				<path style="fill:#3A79AD;" d="M187.453,474.699h-3.169c0.004,0.369,0.077,0.693,0.222,0.973
					c0.145,0.281,0.338,0.494,0.576,0.635c0.24,0.143,0.504,0.215,0.793,0.215c0.193,0,0.371-0.022,0.531-0.066
					c0.16-0.047,0.315-0.119,0.466-0.217c0.149-0.096,0.29-0.199,0.415-0.311c0.127-0.111,0.291-0.262,0.493-0.451
					c0.083-0.07,0.201-0.107,0.356-0.107c0.166,0,0.301,0.047,0.402,0.139c0.104,0.09,0.156,0.217,0.156,0.385
					c0,0.146-0.059,0.316-0.173,0.514c-0.116,0.195-0.288,0.383-0.52,0.563c-0.23,0.182-0.521,0.33-0.873,0.449
					c-0.348,0.119-0.752,0.178-1.207,0.178c-1.041,0-1.85-0.297-2.428-0.891c-0.577-0.592-0.866-1.398-0.866-2.416
					c0-0.479,0.071-0.924,0.214-1.332c0.143-0.41,0.35-0.762,0.622-1.053c0.273-0.293,0.61-0.518,1.009-0.674
					c0.4-0.156,0.844-0.234,1.332-0.234c0.632,0,1.175,0.133,1.627,0.398c0.455,0.268,0.794,0.613,1.02,1.035
					c0.226,0.424,0.339,0.855,0.339,1.295c0,0.408-0.118,0.672-0.35,0.793C188.207,474.639,187.877,474.699,187.453,474.699z
					 M184.284,473.779h2.939c-0.039-0.553-0.19-0.969-0.448-1.244c-0.26-0.275-0.601-0.412-1.024-0.412
					c-0.404,0-0.736,0.139-0.994,0.418C184.496,472.82,184.339,473.232,184.284,473.779z"/>
				<path style="fill:#3A79AD;" d="M194.838,475.477c0,0.447-0.107,0.83-0.326,1.148c-0.219,0.318-0.539,0.56-0.965,0.725
					c-0.426,0.164-0.943,0.246-1.553,0.246c-0.581,0-1.08-0.088-1.496-0.268c-0.416-0.178-0.723-0.4-0.92-0.666
					c-0.197-0.27-0.297-0.537-0.297-0.807c0-0.178,0.063-0.328,0.191-0.455c0.125-0.127,0.286-0.189,0.48-0.189
					c0.17,0,0.299,0.041,0.391,0.125c0.092,0.082,0.178,0.199,0.262,0.348c0.166,0.291,0.365,0.504,0.597,0.648
					c0.231,0.143,0.547,0.215,0.947,0.215c0.324,0,0.591-0.074,0.798-0.219c0.208-0.145,0.311-0.31,0.311-0.496
					c0-0.285-0.107-0.49-0.323-0.621c-0.217-0.131-0.572-0.258-1.066-0.375c-0.557-0.139-1.012-0.285-1.361-0.438
					c-0.351-0.152-0.631-0.352-0.84-0.602c-0.211-0.25-0.316-0.557-0.316-0.922c0-0.322,0.098-0.631,0.291-0.92
					c0.194-0.287,0.48-0.518,0.859-0.69c0.378-0.172,0.834-0.26,1.367-0.26c0.42,0,0.798,0.043,1.131,0.133
					c0.335,0.084,0.613,0.203,0.838,0.35c0.223,0.145,0.395,0.309,0.51,0.486c0.117,0.178,0.174,0.352,0.174,0.521
					c0,0.186-0.061,0.34-0.185,0.459c-0.125,0.117-0.302,0.178-0.532,0.178c-0.166,0-0.309-0.047-0.424-0.145
					c-0.117-0.094-0.25-0.236-0.402-0.426c-0.121-0.158-0.266-0.285-0.432-0.381c-0.167-0.096-0.392-0.143-0.678-0.143
					c-0.293,0-0.535,0.063-0.729,0.188c-0.194,0.125-0.29,0.279-0.29,0.465c0,0.172,0.07,0.311,0.212,0.42
					c0.144,0.109,0.335,0.199,0.577,0.27c0.24,0.072,0.572,0.158,0.998,0.262c0.502,0.123,0.912,0.27,1.23,0.439
					c0.318,0.17,0.56,0.369,0.725,0.602C194.756,474.916,194.838,475.18,194.838,475.477z"/>
				<path style="fill:#3A79AD;" d="M196.494,470.254c-0.227,0-0.419-0.07-0.58-0.209c-0.16-0.137-0.239-0.334-0.239-0.588
					c0-0.23,0.081-0.416,0.245-0.566c0.164-0.148,0.357-0.223,0.574-0.223c0.209,0,0.395,0.066,0.558,0.201
					c0.162,0.135,0.243,0.33,0.243,0.588c0,0.25-0.08,0.443-0.238,0.584C196.898,470.182,196.711,470.254,196.494,470.254z
					 M197.295,471.926v4.685c0,0.324-0.078,0.568-0.23,0.734c-0.156,0.166-0.352,0.25-0.589,0.25c-0.237,0-0.431-0.084-0.579-0.256
					c-0.148-0.17-0.222-0.412-0.222-0.729v-4.637c0-0.32,0.073-0.563,0.222-0.725c0.148-0.162,0.342-0.244,0.579-0.244
					c0.237,0,0.433,0.082,0.589,0.244C197.217,471.412,197.295,471.639,197.295,471.926z"/>
				<path style="fill:#3A79AD;" d="M204.395,472.193v4.707c0,0.539-0.058,1.002-0.174,1.391c-0.113,0.387-0.298,0.707-0.552,0.961
					c-0.253,0.254-0.585,0.441-0.993,0.564c-0.409,0.123-0.92,0.184-1.529,0.184c-0.557,0-1.057-0.078-1.496-0.234
					c-0.438-0.158-0.776-0.359-1.015-0.605c-0.237-0.248-0.356-0.502-0.356-0.764c0-0.197,0.068-0.359,0.201-0.482
					c0.135-0.127,0.299-0.189,0.488-0.189c0.236,0,0.445,0.105,0.623,0.316c0.087,0.106,0.176,0.215,0.27,0.324
					c0.094,0.109,0.197,0.201,0.309,0.279c0.113,0.076,0.248,0.133,0.407,0.172c0.157,0.037,0.341,0.055,0.546,0.055
					c0.42,0,0.745-0.057,0.977-0.174c0.232-0.117,0.395-0.281,0.486-0.49c0.093-0.209,0.148-0.434,0.164-0.674
					c0.016-0.238,0.027-0.623,0.035-1.154c-0.25,0.348-0.537,0.613-0.864,0.795c-0.326,0.182-0.716,0.273-1.165,0.273
					c-0.543,0-1.016-0.139-1.423-0.416c-0.405-0.277-0.718-0.664-0.935-1.164c-0.217-0.498-0.326-1.074-0.326-1.727
					c0-0.486,0.065-0.926,0.199-1.316c0.133-0.395,0.32-0.723,0.566-0.992c0.244-0.27,0.527-0.473,0.848-0.609
					c0.32-0.135,0.673-0.205,1.057-0.205c0.459,0,0.857,0.09,1.195,0.264c0.336,0.178,0.648,0.453,0.938,0.83v-0.221
					c0-0.279,0.068-0.498,0.207-0.652c0.139-0.154,0.317-0.232,0.534-0.232c0.313,0,0.52,0.104,0.622,0.307
					C204.343,471.516,204.395,471.81,204.395,472.193z M199.697,474.248c0,0.656,0.145,1.154,0.432,1.49
					c0.287,0.336,0.658,0.504,1.113,0.504c0.269,0,0.522-0.072,0.762-0.217c0.24-0.145,0.435-0.363,0.586-0.652
					c0.148-0.291,0.225-0.645,0.225-1.06c0-0.66-0.145-1.176-0.436-1.543c-0.292-0.367-0.674-0.551-1.148-0.551
					c-0.465,0-0.836,0.176-1.113,0.527C199.838,473.098,199.697,473.598,199.697,474.248z"/>
				<path style="fill:#3A79AD;" d="M206.97,471.904v0.195c0.284-0.377,0.596-0.652,0.935-0.828c0.338-0.176,0.727-0.266,1.166-0.266
					c0.428,0,0.81,0.096,1.146,0.279c0.336,0.188,0.588,0.449,0.754,0.789c0.106,0.199,0.176,0.412,0.207,0.643
					c0.031,0.229,0.049,0.522,0.049,0.879v3.016c0,0.324-0.074,0.568-0.224,0.734c-0.147,0.166-0.341,0.25-0.579,0.25
					c-0.241,0-0.437-0.084-0.586-0.256c-0.152-0.17-0.227-0.412-0.227-0.729v-2.703c0-0.533-0.074-0.941-0.223-1.225
					c-0.148-0.283-0.443-0.426-0.889-0.426c-0.287,0-0.551,0.088-0.788,0.26c-0.237,0.172-0.413,0.408-0.522,0.709
					c-0.08,0.242-0.119,0.693-0.119,1.354v2.031c0,0.326-0.076,0.574-0.229,0.738c-0.151,0.164-0.35,0.246-0.59,0.246
					c-0.234,0-0.426-0.084-0.576-0.256c-0.15-0.17-0.227-0.412-0.227-0.729v-4.685c0-0.309,0.068-0.539,0.202-0.691
					c0.134-0.152,0.318-0.229,0.552-0.229c0.143,0,0.273,0.035,0.387,0.102c0.113,0.068,0.207,0.168,0.275,0.303
					C206.936,471.545,206.97,471.709,206.97,471.904z"/>
				<path style="fill:#3A79AD;" d="M216.828,474.699h-3.169c0.003,0.369,0.079,0.693,0.222,0.973
					c0.146,0.281,0.338,0.494,0.576,0.635c0.24,0.143,0.504,0.215,0.793,0.215c0.193,0,0.371-0.022,0.531-0.066
					c0.16-0.047,0.315-0.119,0.465-0.217c0.151-0.096,0.289-0.199,0.417-0.311c0.126-0.111,0.29-0.262,0.492-0.451
					c0.083-0.07,0.202-0.107,0.356-0.107c0.166,0,0.301,0.047,0.404,0.139c0.103,0.09,0.153,0.217,0.153,0.385
					c0,0.146-0.058,0.316-0.172,0.514c-0.114,0.195-0.288,0.383-0.52,0.563c-0.232,0.182-0.521,0.33-0.871,0.449
					c-0.35,0.119-0.753,0.178-1.209,0.178c-1.041,0-1.85-0.297-2.428-0.891c-0.577-0.592-0.866-1.398-0.866-2.416
					c0-0.479,0.071-0.924,0.214-1.332c0.143-0.41,0.35-0.762,0.623-1.053c0.272-0.293,0.609-0.518,1.009-0.674
					c0.399-0.156,0.843-0.234,1.331-0.234c0.631,0,1.175,0.133,1.628,0.398c0.454,0.268,0.794,0.613,1.019,1.035
					c0.225,0.424,0.338,0.855,0.338,1.295c0,0.408-0.117,0.672-0.35,0.793C217.582,474.639,217.253,474.699,216.828,474.699z
					 M213.659,473.779h2.939c-0.039-0.553-0.19-0.969-0.448-1.244c-0.26-0.275-0.601-0.412-1.024-0.412
					c-0.403,0-0.736,0.139-0.994,0.418C213.871,472.82,213.715,473.232,213.659,473.779z"/>
				<path style="fill:#3A79AD;" d="M223.435,476.67v-0.16c-0.218,0.248-0.433,0.453-0.644,0.607
					c-0.213,0.158-0.441,0.275-0.688,0.355c-0.248,0.084-0.518,0.123-0.811,0.123c-0.389,0-0.748-0.082-1.078-0.246
					c-0.33-0.164-0.617-0.398-0.857-0.703c-0.242-0.305-0.425-0.662-0.549-1.074c-0.125-0.412-0.188-0.857-0.188-1.336
					c0-1.014,0.247-1.803,0.741-2.369c0.495-0.566,1.146-0.85,1.953-0.85c0.468,0,0.862,0.08,1.182,0.242
					c0.321,0.16,0.634,0.408,0.938,0.736v-2.389c0-0.336,0.067-0.586,0.198-0.756c0.134-0.17,0.322-0.256,0.568-0.256
					c0.246,0,0.434,0.078,0.566,0.234c0.133,0.158,0.199,0.389,0.199,0.693v7.146c0,0.309-0.07,0.541-0.213,0.695
					c-0.145,0.152-0.326,0.23-0.553,0.23c-0.223,0-0.405-0.08-0.549-0.24C223.506,477.195,223.435,476.967,223.435,476.67z
					 M220.248,474.289c0,0.439,0.068,0.814,0.205,1.123c0.135,0.309,0.322,0.541,0.561,0.697c0.236,0.156,0.496,0.234,0.777,0.234
					c0.285,0,0.545-0.074,0.78-0.223c0.235-0.148,0.424-0.375,0.564-0.684c0.14-0.305,0.21-0.69,0.21-1.148
					c0-0.432-0.07-0.803-0.21-1.113c-0.141-0.311-0.331-0.547-0.569-0.713c-0.241-0.162-0.502-0.244-0.789-0.244
					c-0.295,0-0.561,0.084-0.794,0.252s-0.415,0.408-0.544,0.723C220.311,473.51,220.248,473.873,220.248,474.289z"/>
				<path style="fill:#3A79AD;" d="M230.059,469.523v2.473c0.305-0.314,0.615-0.559,0.932-0.725
					c0.316-0.168,0.709-0.254,1.176-0.254c0.539,0,1.01,0.129,1.416,0.383c0.405,0.256,0.719,0.625,0.943,1.111
					c0.225,0.484,0.336,1.061,0.336,1.725c0,0.49-0.063,0.94-0.187,1.35c-0.126,0.41-0.306,0.766-0.544,1.066
					c-0.237,0.299-0.525,0.533-0.863,0.697c-0.338,0.164-0.712,0.246-1.119,0.246c-0.25,0-0.484-0.029-0.703-0.088
					c-0.221-0.061-0.407-0.139-0.563-0.236c-0.153-0.096-0.285-0.195-0.395-0.299c-0.107-0.102-0.252-0.258-0.43-0.463v0.16
					c0,0.305-0.074,0.535-0.221,0.691c-0.145,0.156-0.332,0.234-0.557,0.234c-0.23,0-0.414-0.078-0.549-0.234
					c-0.137-0.156-0.205-0.387-0.205-0.691v-7.076c0-0.328,0.066-0.578,0.197-0.744c0.133-0.168,0.319-0.254,0.557-0.254
					c0.25,0,0.441,0.08,0.575,0.242C229.99,468.998,230.059,469.225,230.059,469.523z M230.137,474.338
					c0,0.645,0.146,1.141,0.441,1.486c0.294,0.346,0.682,0.52,1.16,0.52c0.407,0,0.759-0.178,1.055-0.531
					c0.294-0.355,0.441-0.863,0.441-1.523c0-0.426-0.061-0.795-0.184-1.104c-0.123-0.31-0.297-0.547-0.521-0.715
					c-0.227-0.168-0.49-0.252-0.791-0.252c-0.309,0-0.584,0.084-0.824,0.252c-0.242,0.168-0.432,0.41-0.57,0.728
					C230.205,473.518,230.137,473.898,230.137,474.338z"/>
				<path style="fill:#3A79AD;" d="M236.963,477.799l0.148-0.363l-1.995-5.021c-0.121-0.289-0.184-0.5-0.184-0.631
					c0-0.137,0.036-0.266,0.107-0.383c0.072-0.121,0.169-0.217,0.293-0.287c0.125-0.072,0.254-0.107,0.389-0.107
					c0.233,0,0.41,0.074,0.529,0.225c0.119,0.147,0.223,0.359,0.314,0.637l1.371,3.988l1.3-3.709
					c0.102-0.301,0.196-0.535,0.28-0.707c0.082-0.17,0.17-0.285,0.263-0.344c0.093-0.059,0.226-0.09,0.396-0.09
					c0.123,0,0.24,0.033,0.354,0.1c0.111,0.064,0.199,0.152,0.261,0.264c0.061,0.111,0.093,0.227,0.093,0.35
					c-0.018,0.074-0.041,0.182-0.078,0.32c-0.035,0.139-0.08,0.281-0.131,0.422l-2.113,5.531c-0.182,0.488-0.359,0.869-0.534,1.147
					c-0.175,0.277-0.403,0.49-0.69,0.639c-0.289,0.148-0.674,0.223-1.161,0.223c-0.476,0-0.831-0.051-1.068-0.154
					c-0.237-0.104-0.356-0.291-0.356-0.564c0-0.186,0.057-0.33,0.17-0.43c0.112-0.102,0.279-0.152,0.5-0.152
					c0.088,0,0.174,0.012,0.256,0.037c0.104,0.022,0.192,0.035,0.267,0.035c0.187,0,0.333-0.027,0.439-0.084
					c0.108-0.055,0.203-0.15,0.288-0.287C236.754,478.266,236.852,478.063,236.963,477.799z"/>
			</g>
			<g>
				<path style="fill:#3A79AD;" d="M260.439,471.147h0.387v-0.486c0-0.508,0.063-0.91,0.191-1.211
					c0.127-0.299,0.346-0.516,0.654-0.652c0.307-0.135,0.727-0.205,1.26-0.205c0.949,0,1.42,0.23,1.42,0.697
					c0,0.148-0.049,0.277-0.148,0.385c-0.098,0.105-0.215,0.16-0.35,0.16c-0.063,0-0.174-0.012-0.33-0.037
					c-0.146-0.022-0.281-0.037-0.389-0.037c-0.293,0-0.479,0.09-0.565,0.262c-0.08,0.172-0.123,0.416-0.123,0.74v0.385h0.395
					c0.619,0,0.926,0.185,0.926,0.56c0,0.262-0.078,0.43-0.246,0.502c-0.162,0.07-0.389,0.107-0.68,0.107h-0.395v4.295
					c0,0.318-0.076,0.561-0.23,0.729c-0.152,0.172-0.348,0.254-0.59,0.254c-0.231,0-0.42-0.082-0.574-0.254
					c-0.152-0.168-0.227-0.41-0.227-0.729v-4.295h-0.447c-0.242,0-0.426-0.053-0.559-0.164c-0.129-0.105-0.195-0.248-0.195-0.424
					C259.625,471.34,259.896,471.147,260.439,471.147"/>
				<path style="fill:#3A79AD;" d="M265.746,475.256v1.355c0,0.326-0.084,0.574-0.234,0.736c-0.154,0.166-0.35,0.246-0.588,0.246
					c-0.236,0-0.428-0.082-0.576-0.25c-0.148-0.164-0.227-0.41-0.227-0.733v-4.516c0-0.729,0.262-1.092,0.787-1.092
					c0.271,0,0.465,0.084,0.584,0.256c0.119,0.17,0.186,0.42,0.197,0.754c0.193-0.334,0.393-0.584,0.594-0.754
					c0.209-0.172,0.477-0.256,0.818-0.256c0.344,0,0.67,0.084,0.992,0.256c0.32,0.17,0.48,0.397,0.48,0.678
					c0,0.195-0.068,0.361-0.203,0.488c-0.137,0.129-0.285,0.193-0.441,0.193c-0.063,0-0.207-0.037-0.432-0.111
					c-0.23-0.072-0.432-0.109-0.602-0.109c-0.238,0-0.436,0.064-0.584,0.188c-0.15,0.127-0.27,0.311-0.352,0.555
					c-0.082,0.246-0.137,0.539-0.172,0.877C265.758,474.355,265.746,474.77,265.746,475.256"/>
				<path style="fill:#3A79AD;" d="M273.195,474.697h-3.172c0.006,0.367,0.078,0.695,0.223,0.975
					c0.146,0.279,0.338,0.492,0.576,0.635c0.242,0.143,0.504,0.213,0.795,0.213c0.193,0,0.369-0.02,0.531-0.07
					c0.158-0.043,0.314-0.115,0.465-0.213c0.152-0.094,0.287-0.199,0.414-0.313c0.127-0.107,0.293-0.26,0.496-0.447
					c0.084-0.072,0.201-0.109,0.354-0.109c0.168,0,0.301,0.047,0.406,0.139c0.103,0.092,0.152,0.219,0.152,0.385
					c0,0.147-0.057,0.318-0.168,0.512c-0.115,0.199-0.289,0.387-0.521,0.566c-0.234,0.18-0.525,0.33-0.875,0.447
					c-0.348,0.117-0.752,0.178-1.207,0.178c-1.043,0-1.852-0.295-2.43-0.889c-0.576-0.594-0.869-1.4-0.869-2.416
					c0-0.48,0.074-0.926,0.219-1.334c0.141-0.412,0.348-0.762,0.623-1.057c0.273-0.293,0.607-0.518,1.01-0.674
					c0.396-0.154,0.84-0.232,1.328-0.232c0.633,0,1.176,0.133,1.631,0.402c0.449,0.266,0.795,0.611,1.016,1.035
					c0.227,0.424,0.34,0.854,0.34,1.295c0,0.406-0.117,0.67-0.35,0.793C273.947,474.637,273.619,474.697,273.195,474.697
					 M270.023,473.775h2.939c-0.039-0.553-0.188-0.967-0.445-1.24c-0.262-0.277-0.6-0.414-1.025-0.414
					c-0.404,0-0.736,0.139-0.996,0.42C270.238,472.818,270.078,473.23,270.023,473.775"/>
				<path style="fill:#3A79AD;" d="M279.938,474.697h-3.17c0.004,0.367,0.078,0.695,0.221,0.975
					c0.145,0.279,0.336,0.492,0.576,0.635c0.238,0.143,0.504,0.213,0.795,0.213c0.191,0,0.369-0.02,0.527-0.07
					c0.162-0.043,0.316-0.115,0.469-0.213c0.15-0.094,0.287-0.199,0.414-0.313c0.125-0.107,0.291-0.26,0.494-0.447
					c0.084-0.072,0.203-0.109,0.355-0.109c0.166,0,0.301,0.047,0.404,0.139c0.104,0.092,0.152,0.219,0.152,0.385
					c0,0.147-0.055,0.318-0.172,0.512c-0.111,0.199-0.285,0.387-0.52,0.566c-0.23,0.18-0.523,0.33-0.871,0.447
					c-0.348,0.117-0.756,0.178-1.209,0.178c-1.043,0-1.85-0.295-2.43-0.889c-0.576-0.594-0.867-1.4-0.867-2.416
					c0-0.48,0.072-0.926,0.217-1.334c0.141-0.412,0.35-0.762,0.623-1.057c0.271-0.293,0.607-0.518,1.008-0.674
					c0.398-0.154,0.846-0.232,1.33-0.232c0.633,0,1.176,0.133,1.633,0.402c0.451,0.266,0.791,0.611,1.014,1.035
					c0.225,0.424,0.34,0.854,0.34,1.295c0,0.406-0.117,0.67-0.35,0.793C280.688,474.637,280.359,474.697,279.938,474.697
					 M276.768,473.775h2.938c-0.041-0.553-0.189-0.967-0.447-1.24c-0.262-0.277-0.602-0.414-1.025-0.414
					c-0.404,0-0.736,0.139-0.996,0.42C276.978,472.818,276.82,473.23,276.768,473.775"/>
				<path style="fill:#3A79AD;" d="M283.486,471.916v0.193c0.305-0.375,0.621-0.652,0.955-0.828
					c0.322-0.178,0.697-0.268,1.111-0.268c0.498,0,0.961,0.131,1.381,0.387c0.42,0.26,0.75,0.635,0.992,1.129
					c0.244,0.498,0.367,1.082,0.367,1.76c0,0.496-0.07,0.957-0.209,1.375c-0.141,0.418-0.336,0.768-0.582,1.051
					c-0.246,0.279-0.535,0.5-0.867,0.652c-0.34,0.15-0.695,0.227-1.082,0.227c-0.461,0-0.852-0.092-1.164-0.279
					c-0.315-0.182-0.615-0.457-0.902-0.815v2.432c0,0.709-0.26,1.068-0.777,1.068c-0.307,0-0.506-0.092-0.606-0.273
					c-0.096-0.188-0.146-0.453-0.146-0.809v-6.994c0-0.31,0.066-0.537,0.199-0.693c0.135-0.148,0.32-0.227,0.553-0.227
					c0.23,0,0.416,0.078,0.56,0.232C283.416,471.395,283.486,471.619,283.486,471.916 M286.664,474.27
					c0-0.428-0.065-0.795-0.197-1.102c-0.129-0.309-0.311-0.543-0.539-0.705c-0.23-0.164-0.49-0.248-0.771-0.248
					c-0.445,0-0.822,0.178-1.129,0.529c-0.309,0.354-0.463,0.871-0.463,1.557c0,0.643,0.152,1.146,0.459,1.504
					c0.305,0.359,0.68,0.537,1.133,0.537c0.268,0,0.52-0.078,0.75-0.232c0.23-0.158,0.414-0.393,0.551-0.705
					C286.594,475.09,286.664,474.713,286.664,474.27"/>
				<path style="fill:#3A79AD;" d="M289.926,470.248c-0.227,0-0.42-0.07-0.578-0.209c-0.162-0.139-0.242-0.332-0.242-0.584
					c0-0.23,0.082-0.42,0.248-0.568c0.164-0.148,0.354-0.223,0.572-0.223c0.213,0,0.397,0.066,0.557,0.199
					c0.162,0.137,0.244,0.334,0.244,0.592c0,0.248-0.078,0.443-0.234,0.584C290.332,470.178,290.145,470.248,289.926,470.248
					 M290.727,471.924v4.688c0,0.322-0.076,0.568-0.23,0.733c-0.156,0.168-0.35,0.25-0.588,0.25c-0.238,0-0.428-0.082-0.58-0.254
					c-0.147-0.172-0.223-0.414-0.223-0.729v-4.642c0-0.318,0.076-0.559,0.223-0.721c0.152-0.166,0.342-0.244,0.58-0.244
					c0.238,0,0.432,0.078,0.588,0.244C290.65,471.41,290.727,471.637,290.727,471.924"/>
				<path style="fill:#3A79AD;" d="M295.951,476.853l-1.428-2.351l-0.879,0.828v1.293c0,0.311-0.084,0.549-0.248,0.717
					c-0.162,0.172-0.353,0.254-0.566,0.254c-0.248,0-0.447-0.082-0.588-0.25c-0.143-0.164-0.215-0.41-0.215-0.733v-6.916
					c0-0.357,0.072-0.631,0.207-0.82c0.141-0.191,0.34-0.283,0.596-0.283c0.248,0,0.445,0.086,0.594,0.258
					c0.146,0.17,0.221,0.42,0.221,0.752v3.932l1.822-1.912c0.227-0.236,0.395-0.402,0.518-0.488c0.117-0.086,0.262-0.129,0.43-0.129
					c0.203,0,0.371,0.064,0.51,0.193c0.133,0.127,0.201,0.289,0.201,0.482c0,0.236-0.221,0.557-0.658,0.951l-0.861,0.789
					l1.662,2.615c0.119,0.193,0.211,0.338,0.264,0.439c0.053,0.1,0.082,0.201,0.082,0.289c0,0.258-0.072,0.461-0.213,0.609
					c-0.141,0.149-0.328,0.221-0.555,0.221c-0.197,0-0.352-0.049-0.457-0.16C296.281,477.326,296.135,477.133,295.951,476.853"/>
				<path style="fill:#3A79AD;" d="M299.475,477.594c-0.246,0-0.455-0.078-0.633-0.238c-0.18-0.154-0.27-0.377-0.27-0.664
					c0-0.242,0.088-0.449,0.256-0.621c0.174-0.176,0.381-0.264,0.631-0.264s0.459,0.088,0.641,0.258
					c0.174,0.172,0.262,0.383,0.262,0.627c0,0.283-0.088,0.506-0.262,0.662C299.918,477.516,299.711,477.594,299.475,477.594"/>
				<path style="fill:#3A79AD;" d="M307.535,475.59c0,0.199-0.061,0.416-0.18,0.645c-0.121,0.232-0.307,0.449-0.557,0.658
					c-0.244,0.207-0.555,0.375-0.932,0.5c-0.377,0.127-0.803,0.191-1.271,0.191c-1.002,0-1.785-0.293-2.348-0.875
					c-0.559-0.584-0.84-1.367-0.84-2.35c0-0.668,0.127-1.254,0.385-1.766c0.256-0.508,0.629-0.904,1.115-1.184
					c0.486-0.279,1.072-0.418,1.746-0.418c0.422,0,0.805,0.061,1.158,0.184c0.35,0.121,0.645,0.281,0.891,0.475
					c0.242,0.197,0.428,0.402,0.555,0.621c0.129,0.219,0.193,0.424,0.193,0.615c0,0.193-0.072,0.357-0.215,0.492
					c-0.147,0.135-0.322,0.203-0.523,0.203c-0.137,0-0.25-0.035-0.34-0.104c-0.09-0.07-0.189-0.182-0.299-0.338
					c-0.197-0.301-0.402-0.527-0.621-0.676c-0.215-0.15-0.488-0.227-0.822-0.227c-0.477,0-0.863,0.188-1.158,0.56
					c-0.293,0.373-0.439,0.889-0.439,1.535c0,0.305,0.039,0.586,0.113,0.842c0.074,0.254,0.184,0.473,0.326,0.652
					c0.145,0.18,0.314,0.316,0.516,0.408c0.203,0.098,0.428,0.143,0.666,0.143c0.326,0,0.603-0.076,0.834-0.227
					c0.236-0.15,0.439-0.379,0.617-0.688c0.098-0.184,0.205-0.324,0.318-0.428c0.113-0.104,0.256-0.156,0.422-0.156
					c0.199,0,0.363,0.076,0.49,0.227C307.469,475.258,307.535,475.42,307.535,475.59"/>
				<path style="fill:#3A79AD;" d="M314.529,474.301c0,0.48-0.074,0.928-0.223,1.336c-0.152,0.408-0.369,0.76-0.654,1.049
					c-0.285,0.293-0.627,0.518-1.021,0.676c-0.398,0.154-0.844,0.234-1.336,0.234c-0.49,0-0.932-0.08-1.326-0.24
					c-0.389-0.154-0.73-0.383-1.016-0.676c-0.287-0.297-0.506-0.645-0.658-1.047c-0.143-0.402-0.219-0.848-0.219-1.332
					c0-0.492,0.078-0.941,0.225-1.35c0.15-0.408,0.367-0.758,0.648-1.045c0.283-0.289,0.621-0.512,1.02-0.67
					c0.402-0.154,0.844-0.232,1.326-0.232c0.49,0,0.936,0.078,1.336,0.238c0.398,0.158,0.74,0.385,1.027,0.674
					c0.287,0.297,0.502,0.645,0.65,1.045C314.455,473.369,314.529,473.81,314.529,474.301 M312.902,474.301
					c0-0.662-0.146-1.176-0.435-1.543c-0.289-0.373-0.682-0.555-1.172-0.555c-0.318,0-0.598,0.082-0.838,0.246
					c-0.242,0.164-0.426,0.404-0.559,0.727c-0.129,0.322-0.195,0.697-0.195,1.125c0,0.424,0.063,0.793,0.193,1.107
					c0.129,0.32,0.313,0.561,0.553,0.73c0.242,0.166,0.522,0.252,0.846,0.252c0.49,0,0.883-0.185,1.172-0.559
					C312.756,475.465,312.902,474.951,312.902,474.301"/>
				<path style="fill:#3A79AD;" d="M320.713,474.418v2.156c0,0.342-0.076,0.594-0.23,0.766c-0.156,0.172-0.357,0.256-0.611,0.256
					c-0.246,0-0.445-0.084-0.596-0.256c-0.154-0.172-0.232-0.424-0.232-0.766v-2.582c0-0.41-0.012-0.727-0.039-0.953
					c-0.029-0.221-0.105-0.408-0.227-0.553c-0.123-0.146-0.318-0.219-0.582-0.219c-0.531,0-0.879,0.182-1.047,0.551
					c-0.168,0.359-0.254,0.883-0.254,1.566v2.189c0,0.336-0.078,0.59-0.227,0.764c-0.156,0.172-0.355,0.258-0.604,0.258
					c-0.248,0-0.447-0.086-0.604-0.258c-0.156-0.174-0.234-0.428-0.234-0.764v-4.637c0-0.307,0.068-0.537,0.209-0.695
					c0.143-0.16,0.328-0.238,0.555-0.238c0.225,0,0.408,0.076,0.559,0.221c0.146,0.15,0.221,0.355,0.221,0.617v0.152
					c0.283-0.334,0.584-0.582,0.902-0.738c0.324-0.162,0.678-0.242,1.072-0.242c0.406,0,0.756,0.082,1.049,0.246
					c0.293,0.162,0.533,0.408,0.725,0.734c0.273-0.33,0.566-0.576,0.881-0.738c0.313-0.16,0.658-0.242,1.039-0.242
					c0.44,0,0.824,0.09,1.147,0.264c0.318,0.174,0.557,0.426,0.715,0.746c0.139,0.297,0.209,0.756,0.209,1.387v3.164
					c0,0.342-0.076,0.594-0.23,0.766c-0.154,0.172-0.359,0.256-0.611,0.256c-0.248,0-0.447-0.086-0.603-0.258
					c-0.156-0.174-0.236-0.428-0.236-0.764v-2.727c0-0.35-0.014-0.627-0.043-0.836c-0.029-0.211-0.109-0.389-0.238-0.529
					c-0.133-0.143-0.332-0.215-0.596-0.215c-0.215,0-0.418,0.066-0.609,0.193c-0.191,0.123-0.342,0.297-0.449,0.506
					C320.773,473.242,320.713,473.725,320.713,474.418"/>
			</g>
			<g>
				<path style="fill:#3A79AD;" d="M245.271,473.908c0-0.002,0-0.008,0-0.012C245.271,473.9,245.271,473.906,245.271,473.908z"/>
				<path style="fill:#3A79AD;" d="M245.354,474.426c0.002,0,0.002,0,0.002,0c-0.031-0.147-0.055-0.293-0.074-0.44
					C245.301,474.133,245.324,474.281,245.354,474.426z"/>
				<path style="fill:#3A79AD;" d="M245.891,475.93c-0.004-0.006-0.008-0.012-0.012-0.02
					C245.883,475.918,245.887,475.924,245.891,475.93z"/>
				<path style="fill:#3A79AD;" d="M245.838,475.83c-0.014-0.027-0.025-0.055-0.039-0.084
					C245.813,475.775,245.824,475.803,245.838,475.83z"/>
				<path style="fill:#3A79AD;" d="M245.504,475.006c0.08,0.25,0.176,0.492,0.285,0.723c-0.111-0.234-0.205-0.478-0.283-0.723
					C245.506,475.006,245.506,475.006,245.504,475.006z"/>
				<path style="fill:#3A79AD;" d="M251.545,467.697c0.314,0,0.545,0.025,0.811,0.07l0.074-0.479c0,0-0.732-0.223-1.693-0.145
					l-0.076-0.26c0.299-0.063,0.523-0.328,0.523-0.646c0-0.365-0.297-0.658-0.66-0.658c-0.365,0-0.66,0.293-0.66,0.658
					c0,0.318,0.225,0.584,0.521,0.646l0.086,0.289c-1.023,0.141-1.836,0.539-1.836,0.539l0.145,0.439
					c0.617-0.205,1.152-0.33,1.639-0.383C250.895,467.721,251.254,467.697,251.545,467.697z"/>
				<path style="fill:#3A79AD;" d="M245.877,470.109l0.004-0.006c0.025-0.029,0.049-0.06,0.07-0.088l-0.195-0.141l-0.305-0.225
					c-0.018,0.025-0.496,0.467-0.875,1.281c-0.016-0.025-0.035-0.051-0.057-0.074c-0.113-0.125-0.271-0.188-0.473-0.185
					c-0.004,0-0.006,0-0.01,0c-0.125,0-0.211-0.041-0.268-0.09c0.057-0.072,0.09-0.16,0.09-0.26c0-0.23-0.188-0.416-0.418-0.416
					s-0.418,0.185-0.418,0.416c0,0.232,0.188,0.42,0.418,0.42c0.035,0,0.07-0.008,0.105-0.014c0.102,0.113,0.264,0.213,0.504,0.207
					c0.123,0,0.213,0.031,0.273,0.098c0.068,0.076,0.092,0.186,0.1,0.268c-0.002,0.002-0.002,0.002-0.002,0.002
					c-0.273,0.744-0.195,1.67-0.195,1.67l0.66,0.027c0.014-0.338,0.063-0.928,0.234-1.395
					C245.449,470.699,245.861,470.133,245.877,470.109z"/>
				<path style="fill:#3A79AD;" d="M257.295,468.25c-0.23,0-0.418,0.185-0.418,0.418c0,0.035,0.004,0.07,0.016,0.104
					c-0.115,0.103-0.217,0.266-0.211,0.506c0.002,0.125-0.029,0.213-0.098,0.273c-0.053,0.047-0.119,0.072-0.184,0.088
					c-0.492-0.69-1.098-1.109-1.098-1.109l-0.475,0.508c0.359,0.326,0.725,0.734,1.08,1.244c0.246,0.353,0.498,0.807,0.711,1.26
					l0.639-0.305c0,0-0.291-0.723-0.703-1.369c0.07-0.025,0.143-0.064,0.207-0.121c0.125-0.113,0.188-0.271,0.182-0.475
					c0-0.129,0.043-0.215,0.094-0.275c0.072,0.055,0.16,0.09,0.258,0.09c0.23,0,0.418-0.186,0.418-0.418
					C257.713,468.435,257.525,468.25,257.295,468.25z"/>
				<path style="fill:#3A79AD;" d="M255.635,474.002c-0.883,0.428-2.33,0.996-4.238,1.262c-0.75,0.103-1.475,0.143-2.145,0.143
					c-0.869,0-1.637-0.065-2.227-0.141c-0.672-0.084-1.197-0.188-1.52-0.26c0.078,0.244,0.172,0.488,0.283,0.723
					c0.002,0.006,0.006,0.014,0.01,0.018c0.014,0.029,0.025,0.057,0.039,0.084c0.014,0.027,0.027,0.053,0.041,0.08
					c0.004,0.008,0.008,0.014,0.012,0.02c0.188,0.357,0.416,0.684,0.676,0.969c0.898,0.984,1.816,1.141,1.824,1.141l0.016,0.002
					l0.012,0.006c0.01,0.002,0.822,0.266,2.057,0.266c1.217,0,2.41-0.246,3.547-0.73c0.842-0.432,1.641-1.086,2.033-1.67
					c0.307-0.449,0.527-0.932,0.658-1.432c0.068-0.268,0.123-0.693,0.09-1.141C256.557,473.506,256.164,473.742,255.635,474.002z"/>
				<path style="fill:#3A79AD;" d="M246.16,470.318c-0.025,0.037-0.408,0.578-0.709,1.408c-0.227,0.621-0.217,1.527-0.217,1.537
					v0.002c0,0.213,0.014,0.422,0.037,0.631c0,0.004,0,0.01,0,0.012c0.002,0.027,0.008,0.053,0.01,0.078
					c0.02,0.147,0.043,0.293,0.074,0.44c0.438,0.111,3.049,0.721,5.967,0.314c1.83-0.254,3.221-0.797,4.063-1.205
					c0.701-0.338,1.15-0.646,1.324-0.773c-0.174-0.643-0.65-1.65-1.088-2.279c-1.254-1.791-2.605-2.25-3.299-2.365
					c-0.264-0.043-0.477-0.066-0.777-0.066c-0.279,0-0.625,0.021-1.088,0.07c-0.465,0.049-0.984,0.17-1.584,0.373
					c-0.842,0.281-1.604,0.725-2.205,1.279l-0.02,0.02C246.561,469.875,246.375,470.047,246.16,470.318z M253.828,469.9
					c0.602,0,1.092,0.488,1.092,1.09c0,0.602-0.49,1.09-1.092,1.09c-0.6,0-1.088-0.488-1.088-1.09
					C252.74,470.389,253.229,469.9,253.828,469.9z M248.678,469.857c0.973,0,1.762,0.789,1.762,1.762
					c0,0.971-0.789,1.758-1.762,1.758c-0.973,0-1.76-0.787-1.76-1.758C246.918,470.647,247.705,469.857,248.678,469.857z"/>
			</g>
		</g>
	</g>
</g>
<g id="OBJECTS">
	<g>
		<g>
			<path style="fill:#4BBDD7;" d="M344.419,256.839H156.298v-102.82h188.121V256.839z M159.485,253.652h181.747v-96.446H159.485
				V253.652z"/>
		</g>
		<g>
			<path style="fill:#4BBDD7;" d="M355.506,157.206H145.213c-3.821,0-6.93-3.108-6.93-6.929c0-3.821,3.108-6.93,6.93-6.93h210.293
				c3.82,0,6.928,3.108,6.928,6.93C362.434,154.098,359.326,157.206,355.506,157.206z M145.213,146.535
				c-2.064,0-3.743,1.679-3.743,3.743c0,2.064,1.679,3.742,3.743,3.742h210.293c2.063,0,3.741-1.678,3.741-3.742
				c0-2.064-1.679-3.743-3.741-3.743H145.213z"/>
		</g>
		<g>
			<path style="fill:#4BBDD7;" d="M355.506,267.51H145.213c-3.821,0-6.93-3.109-6.93-6.93c0-3.82,3.108-6.928,6.93-6.928h210.293
				c3.82,0,6.928,3.107,6.928,6.928C362.434,264.4,359.326,267.51,355.506,267.51z M145.213,256.839
				c-2.064,0-3.743,1.679-3.743,3.741c0,2.063,1.679,3.742,3.743,3.742h210.293c2.063,0,3.741-1.679,3.741-3.742
				c0-2.063-1.679-3.741-3.741-3.741H145.213z"/>
		</g>
		<g>
			<g>
				<g>
					<path style="fill:#4BBDD7;" d="M249.42,264.978c-10.477,9.45-20.953,18.9-31.429,28.35c-1.274,1.15,0.61,3.022,1.878,1.878
						c10.476-9.45,20.953-18.9,31.43-28.351C252.572,265.705,250.688,263.833,249.42,264.978L249.42,264.978z"/>
				</g>
			</g>
			<g>
				<g>
					<path style="fill:#4BBDD7;" d="M248.756,266.854c10.476,9.45,20.953,18.9,31.428,28.351c1.267,1.143,3.151-0.729,1.878-1.878
						c-10.477-9.45-20.953-18.899-31.429-28.35C249.366,263.833,247.482,265.705,248.756,266.854L248.756,266.854z"/>
				</g>
			</g>
		</g>
	</g>
	<g>
		<g>
			<path style="fill:#EB5A49;" d="M185.177,183.044c0-0.384,0.325-0.71,0.709-0.71h0.089h5.765c3.252,0,5.883,2.661,5.883,5.913
				c0,3.252-2.631,5.884-5.883,5.884l-5.115,0.059v8.13c0,0.384-0.325,0.71-0.739,0.71c-0.384,0-0.709-0.325-0.709-0.71V183.044z
				 M191.74,192.741c2.454-0.03,4.464-2.04,4.464-4.494c0-2.454-2.01-4.464-4.464-4.464h-5.115v8.958H191.74z"/>
			<path style="fill:#EB5A49;" d="M212.702,198.358c0-1.508-0.769-2.454-1.685-3.134c-0.917-0.65-2.01-0.976-2.395-1.035
				c-0.089-0.03-0.118-0.059-0.148-0.059h-5.026v8.189c0,0.384-0.325,0.71-0.739,0.71c-0.384,0-0.71-0.325-0.71-0.71v-19.276
				c0-0.355,0.295-0.68,0.65-0.71h0.059h0.089h5.765c3.252,0,5.883,2.631,5.883,5.913c0,2.365-1.39,4.405-3.4,5.352
				c0.088,0.059,0.177,0.088,0.295,0.148c1.36,0.769,2.779,2.277,2.779,4.612c0,1.212,0.118,1.951,0.266,2.395
				c0.118,0.355,0.266,0.473,0.295,0.503c0.325-0.03,0.68,0.148,0.798,0.473c0.089,0.384-0.089,0.798-0.473,0.946
				c-0.029,0-0.177,0.03-0.355,0.03h-0.059c-0.384,0-1.005-0.296-1.331-0.946C212.909,201.078,212.702,200.102,212.702,198.358z
				 M208.563,183.783h-5.115v8.928h4.967h0.266c2.395-0.059,4.346-2.04,4.346-4.464
				C213.027,185.763,211.017,183.783,208.563,183.783z"/>
			<path style="fill:#EB5A49;" d="M229.466,182.038c5.528,0,9.875,4.701,9.904,10.496c-0.03,5.794-4.376,10.496-9.904,10.496
				c-5.588,0-9.963-4.701-9.993-10.496C219.502,186.739,223.878,182.038,229.466,182.038z M229.466,201.581
				c4.553,0,8.396-3.991,8.426-9.047c-0.029-5.115-3.873-9.017-8.426-9.017c-4.701,0-8.544,3.902-8.544,9.017
				C220.921,197.589,224.765,201.581,229.466,201.581z"/>
			<path style="fill:#EB5A49;" d="M243.392,197.264c0.384-0.118,0.798,0.088,0.887,0.443c0.739,2.276,2.838,3.902,5.321,3.873
				c3.075,0,5.588-2.483,5.588-5.558v-12.979c0-0.384,0.325-0.71,0.71-0.71c0.384,0,0.709,0.325,0.709,0.71v12.979
				c0,3.902-3.135,7.007-7.007,7.007c-3.104,0-5.794-2.04-6.682-4.849C242.8,197.796,243.007,197.382,243.392,197.264z"/>
			<path style="fill:#EB5A49;" d="M262.195,183.044c0-0.384,0.325-0.71,0.709-0.71h0.06h10.584c0.414,0,0.71,0.325,0.71,0.71
				c0,0.413-0.296,0.739-0.71,0.739h-9.905v8.189h8.663c0.386,0,0.71,0.325,0.71,0.739c0,0.384-0.324,0.709-0.71,0.709h-8.663v8.16
				h9.905c0.414,0,0.71,0.325,0.71,0.739c0,0.384-0.296,0.71-0.71,0.71h-10.554h-0.09h-0.059c-0.355-0.03-0.65-0.325-0.65-0.71
				V183.044z"/>
			<path style="fill:#EB5A49;" d="M289.573,182.038c2.541,0,4.877,0.887,6.681,2.276c0.325,0.266,0.385,0.769,0.118,1.035
				c-0.237,0.355-0.71,0.384-1.005,0.148c-1.597-1.242-3.607-2.01-5.794-2.01c-5.175,0-9.313,4.05-9.313,9.106
				c0,4.938,4.139,8.988,9.313,8.988c2.187,0,4.197-0.71,5.734-2.01c0.354-0.237,0.827-0.178,1.035,0.177
				c0.296,0.266,0.236,0.798-0.089,1.035c-1.804,1.39-4.14,2.247-6.681,2.247c-5.943,0-10.762-4.671-10.762-10.436
				C278.811,186.71,283.63,182.068,289.573,182.038z"/>
			<path style="fill:#EB5A49;" d="M307.874,183.783h-6.238c-0.384,0-0.71-0.326-0.71-0.739c0-0.384,0.326-0.71,0.71-0.71h13.896
				c0.385,0,0.709,0.325,0.709,0.71c0,0.413-0.324,0.739-0.709,0.739h-6.238v18.537c0,0.384-0.325,0.71-0.709,0.71
				c-0.386,0-0.71-0.325-0.71-0.71V183.783z"/>
		</g>
		<g>
			<path style="fill:#EB5A49;" d="M185.232,215.612l-5.097,7.078c-0.114,0.182-0.296,0.25-0.455,0.25h-0.046
				c-0.205,0-0.364-0.069-0.477-0.25l-5.098-7.055v13.085c0,0.296-0.251,0.546-0.546,0.546c-0.319,0-0.569-0.251-0.569-0.546
				v-14.747c0-0.182,0.091-0.341,0.228-0.433c0-0.022,0.022-0.022,0.045-0.045c0.251-0.159,0.592-0.114,0.774,0.136l5.667,7.852
				l5.644-7.852c0.159-0.251,0.523-0.295,0.773-0.136c0.069,0.068,0.114,0.114,0.16,0.182c0.045,0.091,0.09,0.204,0.09,0.295v14.747
				c0,0.296-0.25,0.546-0.545,0.546c-0.319,0-0.547-0.251-0.547-0.546V215.612z"/>
			<path style="fill:#EB5A49;" d="M199.383,225.148h-7.259l-1.411,3.754c-0.091,0.228-0.296,0.364-0.523,0.364
				c-0.046,0-0.137-0.023-0.205-0.023c-0.273-0.113-0.433-0.455-0.319-0.728l5.53-14.77c0.091-0.205,0.319-0.341,0.546-0.341
				c0.251,0,0.478,0.136,0.546,0.341l5.53,14.77c0.114,0.273-0.023,0.615-0.296,0.728c-0.091,0-0.137,0.023-0.205,0.023
				c-0.204,0-0.432-0.136-0.523-0.364L199.383,225.148z M192.534,224.032h6.44l-3.209-8.557L192.534,224.032z"/>
			<path style="fill:#EB5A49;" d="M206.525,215.68v13.039c0,0.296-0.25,0.546-0.546,0.546c-0.296,0-0.546-0.251-0.546-0.546v-14.61
				c-0.068-0.228,0-0.455,0.205-0.614c0.25-0.159,0.614-0.114,0.773,0.136l9.649,13.381v-12.971c0-0.296,0.251-0.546,0.546-0.546
				c0.319,0,0.569,0.25,0.569,0.546v14.678c0,0.296-0.25,0.546-0.569,0.546c-0.182,0-0.318-0.068-0.432-0.205
				c-0.022-0.022-0.068-0.045-0.091-0.091L206.525,215.68z"/>
			<path style="fill:#EB5A49;" d="M231.622,225.148h-7.26l-1.411,3.754c-0.091,0.228-0.296,0.364-0.523,0.364
				c-0.045,0-0.137-0.023-0.205-0.023c-0.273-0.113-0.433-0.455-0.318-0.728l5.53-14.77c0.091-0.205,0.318-0.341,0.546-0.341
				c0.251,0,0.479,0.136,0.546,0.341l5.53,14.77c0.113,0.273-0.023,0.615-0.296,0.728c-0.091,0-0.136,0.023-0.204,0.023
				c-0.205,0-0.433-0.136-0.524-0.364L231.622,225.148z M224.772,224.032h6.44l-3.209-8.557L224.772,224.032z"/>
			<path style="fill:#EB5A49;" d="M244.316,222.097c-0.318,0-0.569-0.227-0.569-0.546c0-0.318,0.25-0.568,0.569-0.568h4.915h0.068
				c0.273,0.022,0.501,0.273,0.501,0.568v5.461v0.091c-0.023,0.16-0.091,0.319-0.205,0.41c-1.411,1.115-3.186,1.752-5.143,1.752
				c-4.574-0.023-8.284-3.596-8.284-8.102c0-4.437,3.71-8.055,8.284-8.055c1.98,0,3.732,0.682,5.166,1.797
				c0.205,0.159,0.272,0.546,0.068,0.774c-0.182,0.227-0.524,0.273-0.797,0.091c-1.161-0.956-2.73-1.547-4.438-1.547
				c-3.982,0-7.168,3.118-7.168,6.94c0,3.869,3.186,6.987,7.168,6.987c1.547,0,3.027-0.5,4.21-1.365v-4.688H244.316z"/>
			<path style="fill:#EB5A49;" d="M255.394,213.882c0-0.295,0.251-0.545,0.547-0.545h0.046h8.146c0.319,0,0.547,0.25,0.547,0.545
				c0,0.319-0.228,0.569-0.547,0.569h-7.624v6.304h6.669c0.295,0,0.546,0.25,0.546,0.569c0,0.295-0.251,0.546-0.546,0.546h-6.669
				v6.281h7.624c0.319,0,0.547,0.251,0.547,0.569c0,0.296-0.228,0.546-0.547,0.546h-8.124h-0.068h-0.046
				c-0.272-0.023-0.501-0.251-0.501-0.546V213.882z"/>
			<path style="fill:#EB5A49;" d="M281.176,215.612l-5.098,7.078c-0.114,0.182-0.296,0.25-0.456,0.25h-0.045
				c-0.205,0-0.364-0.069-0.478-0.25l-5.098-7.055v13.085c0,0.296-0.25,0.546-0.546,0.546c-0.318,0-0.569-0.251-0.569-0.546v-14.747
				c0-0.182,0.092-0.341,0.229-0.433c0-0.022,0.022-0.022,0.046-0.045c0.25-0.159,0.591-0.114,0.773,0.136l5.666,7.852l5.645-7.852
				c0.158-0.251,0.523-0.295,0.773-0.136c0.068,0.068,0.114,0.114,0.16,0.182c0.046,0.091,0.091,0.204,0.091,0.295v14.747
				c0,0.296-0.251,0.546-0.547,0.546c-0.318,0-0.545-0.251-0.545-0.546V215.612z"/>
			<path style="fill:#EB5A49;" d="M286.95,213.882c0-0.295,0.251-0.545,0.547-0.545h0.046h8.146c0.319,0,0.547,0.25,0.547,0.545
				c0,0.319-0.228,0.569-0.547,0.569h-7.624v6.304h6.668c0.296,0,0.547,0.25,0.547,0.569c0,0.295-0.251,0.546-0.547,0.546h-6.668
				v6.281h7.624c0.319,0,0.547,0.251,0.547,0.569c0,0.296-0.228,0.546-0.547,0.546h-8.124h-0.068h-0.046
				c-0.273-0.023-0.501-0.251-0.501-0.546V213.882z"/>
			<path style="fill:#EB5A49;" d="M301.603,215.68v13.039c0,0.296-0.25,0.546-0.546,0.546s-0.547-0.251-0.547-0.546v-14.61
				c-0.068-0.228,0-0.455,0.205-0.614c0.25-0.159,0.614-0.114,0.774,0.136l9.648,13.381v-12.971c0-0.296,0.25-0.546,0.547-0.546
				c0.318,0,0.568,0.25,0.568,0.546v14.678c0,0.296-0.25,0.546-0.568,0.546c-0.183,0-0.319-0.068-0.433-0.205
				c-0.023-0.022-0.068-0.045-0.092-0.091L301.603,215.68z"/>
			<path style="fill:#EB5A49;" d="M321.875,214.451h-4.802c-0.296,0-0.546-0.25-0.546-0.569c0-0.295,0.25-0.545,0.546-0.545h10.696
				c0.296,0,0.547,0.25,0.547,0.545c0,0.319-0.251,0.569-0.547,0.569h-4.802v14.268c0,0.296-0.25,0.546-0.546,0.546
				c-0.297,0-0.547-0.251-0.547-0.546V214.451z"/>
		</g>
	</g>
	<g>
		<g>
			<g>
				<path style="fill:#4BBDD7;" d="M112.054,349.41l-2.062-0.177c-8.929-0.767-13.347-5.245-15.514-9.136
					c-1.261,0.17-2.536,0.256-3.799,0.256c-12.833,0-23.272-8.552-23.272-19.063c0-10.513,10.44-19.064,23.272-19.064
					c12.832,0,23.272,8.552,23.272,19.064c0,5.083-2.512,9.993-6.914,13.559c0.879,7.536,3.927,12.73,3.959,12.783L112.054,349.41z
					 M95.665,337.764l0.35,0.697c1.636,3.262,5.067,7.232,12.206,8.413c-1.09-2.342-2.796-6.753-3.361-12.391l-0.059-0.589
					l0.471-0.36c4.226-3.232,6.554-7.581,6.554-12.244c0-9.34-9.487-16.939-21.148-16.939c-11.661,0-21.148,7.6-21.148,16.939
					c0,9.341,9.487,16.939,21.148,16.939c1.404,0,2.822-0.115,4.216-0.342L95.665,337.764z"/>
			</g>
			<g>
				<g>
					<g>
						<path style="fill:#FED65C;" d="M79.794,314.072c7.559,0,15.118,0,22.678,0c1.712,0,1.712-2.655,0-2.655
							c-7.56,0-15.119,0-22.678,0C78.081,311.417,78.081,314.072,79.794,314.072L79.794,314.072z"/>
					</g>
				</g>
				<g>
					<g>
						<path style="fill:#FED65C;" d="M76.989,322.486c9.43,0,18.859,0,28.288,0c1.713,0,1.713-2.655,0-2.655
							c-9.429,0-18.859,0-28.288,0C75.276,319.831,75.276,322.486,76.989,322.486L76.989,322.486z"/>
					</g>
				</g>
				<g>
					<g>
						<path style="fill:#FED65C;" d="M79.794,330.904c7.559,0,15.118,0,22.678,0c1.712,0,1.712-2.655,0-2.655
							c-7.56,0-15.119,0-22.678,0C78.081,328.249,78.081,330.904,79.794,330.904L79.794,330.904z"/>
					</g>
				</g>
			</g>
		</g>
		<g>
			<g>
				<path style="fill:#4BBDD7;" d="M127.268,336.421l1.059-1.777c0.032-0.054,3.08-5.247,3.959-12.781
					c-4.402-3.565-6.914-8.477-6.914-13.561c0-10.512,10.44-19.063,23.273-19.063c12.833,0,23.272,8.552,23.272,19.063
					c0,10.512-10.44,19.063-23.272,19.063c-1.27,0-2.544-0.085-3.799-0.254c-2.168,3.891-6.585,8.369-15.515,9.134L127.268,336.421z
					 M148.644,291.362c-11.661,0-21.148,7.599-21.148,16.939c0,4.664,2.328,9.013,6.554,12.246l0.471,0.359l-0.06,0.59
					c-0.564,5.637-2.27,10.048-3.36,12.389c7.139-1.181,10.57-5.149,12.207-8.412l0.35-0.696l0.77,0.124
					c1.386,0.226,2.804,0.339,4.216,0.339c11.661,0,21.148-7.599,21.148-16.938C169.792,298.961,160.305,291.362,148.644,291.362z"
					/>
			</g>
			<g>
				<g>
					<g>
						<path style="fill:#FED65C;" d="M159.528,298.43c-7.559,0-15.118,0-22.678,0c-1.712,0-1.712,2.656,0,2.656
							c7.56,0,15.119,0,22.678,0C161.241,301.086,161.241,298.43,159.528,298.43L159.528,298.43z"/>
					</g>
				</g>
				<g>
					<g>
						<path style="fill:#FED65C;" d="M162.334,306.845c-9.43,0-18.859,0-28.289,0c-1.712,0-1.712,2.656,0,2.656
							c9.43,0,18.859,0,28.289,0C164.047,309.501,164.047,306.845,162.334,306.845L162.334,306.845z"/>
					</g>
				</g>
				<g>
					<g>
						<path style="fill:#FED65C;" d="M159.528,315.262c-7.559,0-15.118,0-22.678,0c-1.712,0-1.712,2.656,0,2.656
							c7.56,0,15.119,0,22.678,0C161.241,317.918,161.241,315.262,159.528,315.262L159.528,315.262z"/>
					</g>
				</g>
			</g>
		</g>
	</g>
	<g>
		<g>
			<path style="fill:#EB5A49;" d="M112.67,263.324H42.556v-94.477h60.881l9.233,13.191V263.324z M44.68,261.2h65.866v-78.491
				l-8.215-11.737H44.68V261.2z"/>
		</g>
		<g>
			<g>
				<polygon style="fill:#428CAD;" points="100.317,206.442 53.315,206.442 53.315,178.03 55.14,178.03 55.14,204.617 
					100.317,204.617 				"/>
			</g>
			<g>
				<g>
					<rect x="63.26" y="188.596" style="fill:#FED65C;" width="4.344" height="12.665"/>
				</g>
				<g>
					<rect x="71.192" y="186.197" style="fill:#FED65C;" width="4.344" height="15.063"/>
				</g>
				<g>
					<rect x="79.124" y="182.94" style="fill:#FED65C;" width="4.344" height="18.32"/>
				</g>
				<g>
					<rect x="87.056" y="180.675" style="fill:#FED65C;" width="4.345" height="20.586"/>
				</g>
			</g>
		</g>
		<g>
			<g>
				<rect x="49.851" y="214.929" style="fill:#4BBDD7;" width="55.525" height="2.125"/>
			</g>
			<g>
				<rect x="49.851" y="223.995" style="fill:#4BBDD7;" width="55.525" height="2.125"/>
			</g>
			<g>
				<rect x="49.851" y="233.06" style="fill:#4BBDD7;" width="55.525" height="2.125"/>
			</g>
			<g>
				<rect x="49.851" y="242.125" style="fill:#4BBDD7;" width="55.525" height="2.125"/>
			</g>
			<g>
				<rect x="49.851" y="251.191" style="fill:#4BBDD7;" width="55.525" height="2.125"/>
			</g>
		</g>
	</g>
	<g>
		<g>
			<path style="fill:#428CAD;" d="M164.184,419.031c-15.296,0-27.741-12.445-27.741-27.742c0-15.296,12.444-27.74,27.741-27.74
				c15.297,0,27.742,12.444,27.742,27.74C191.926,406.586,179.481,419.031,164.184,419.031z M164.184,365.674
				c-14.124,0-25.616,11.491-25.616,25.615c0,14.126,11.492,25.618,25.616,25.618c14.125,0,25.617-11.492,25.617-25.618
				C189.801,377.165,178.309,365.674,164.184,365.674z"/>
		</g>
		<g>
			<path style="fill:#428CAD;" d="M164.184,412.441c-11.663,0-21.15-9.489-21.15-21.152c0-11.663,9.488-21.151,21.15-21.151
				c11.663,0,21.151,9.488,21.151,21.151C185.335,402.952,175.847,412.441,164.184,412.441z M164.184,372.262
				c-10.491,0-19.026,8.536-19.026,19.027c0,10.492,8.535,19.027,19.026,19.027c10.491,0,19.027-8.535,19.027-19.027
				C183.211,380.798,174.675,372.262,164.184,372.262z"/>
		</g>
		<g>
			<g>
				<path style="fill:#EB5A49;" d="M152.024,386.586c3.765,2.412,7.529,4.824,11.294,7.237c0.375,0.241,0.81,0.114,1.126-0.145
					c4.607-3.784,9.213-7.568,13.819-11.352c0.927-0.761-0.396-2.069-1.315-1.315c-4.333,3.56-8.666,7.119-12.999,10.678
					c-1.349,1.108,0.63,0.736-0.319,0.128c-1.273-0.816-2.546-1.632-3.82-2.448c-2.283-1.463-4.565-2.926-6.849-4.389
					C151.95,384.332,151.019,385.94,152.024,386.586L152.024,386.586z"/>
			</g>
		</g>
		<g>
			<g>
				<path style="fill:#4BBDD7;" d="M137.108,375.951l-0.618-0.864c-1.903-2.661-2.655-5.902-2.12-9.129
					c0.536-3.227,2.296-6.05,4.956-7.952c2.091-1.496,4.551-2.287,7.114-2.287c3.947,0,7.673,1.914,9.967,5.12l0.619,0.864
					L137.108,375.951z M146.439,357.844c-2.117,0-4.149,0.653-5.878,1.89c-2.198,1.572-3.652,3.906-4.095,6.573
					c-0.384,2.313,0.034,4.637,1.178,6.648l16.37-11.711C152.105,359.098,149.345,357.844,146.439,357.844z"/>
			</g>
			<g>
				<path style="fill:#4BBDD7;" d="M191.261,375.951l-19.917-14.248l0.618-0.864c2.293-3.206,6.019-5.12,9.966-5.12
					c2.563,0,5.023,0.791,7.115,2.287c2.66,1.902,4.419,4.726,4.955,7.952c0.536,3.227-0.217,6.468-2.12,9.129L191.261,375.951z
					 M174.355,361.244l16.37,11.711c1.145-2.012,1.562-4.335,1.178-6.648c-0.443-2.667-1.897-5.001-4.095-6.573
					c-1.729-1.236-3.762-1.89-5.879-1.89C179.023,357.844,176.263,359.098,174.355,361.244z"/>
			</g>
		</g>
	</g>
	<g>
		<g>
			<g>
				<path style="fill:#EB5A49;" d="M284.776,365.288c-1.286,0-2.496-0.502-3.405-1.412l-8.829-8.827
					c-2.516,1.378-5.346,2.104-8.237,2.104c-4.571,0-8.869-1.78-12.101-5.013c-6.682-6.682-6.682-17.557,0.002-24.238
					c3.236-3.236,7.542-5.021,12.119-5.021c4.578,0,8.882,1.784,12.119,5.021c5.432,5.431,6.57,13.673,2.909,20.337l8.828,8.828
					c0.91,0.908,1.411,2.119,1.411,3.406c0,1.286-0.501,2.494-1.411,3.403C287.272,364.786,286.063,365.288,284.776,365.288z
					 M272.955,352.155l0.755,0.854l9.264,9.265c0.961,0.961,2.642,0.964,3.606,0c0.48-0.481,0.747-1.121,0.747-1.802
					c0-0.682-0.267-1.323-0.747-1.803l-9.403-9.375l-0.722-0.635l0.505-0.816c3.656-5.896,2.784-13.436-2.118-18.34
					c-2.809-2.81-6.544-4.355-10.517-4.355s-7.707,1.546-10.518,4.355c-5.799,5.8-5.799,15.236-0.001,21.033
					c2.805,2.804,6.532,4.348,10.498,4.348c2.779,0,5.493-0.771,7.844-2.229L272.955,352.155z M264.325,351.261
					c-3.002,0-5.824-1.169-7.949-3.294c-4.382-4.382-4.381-11.512,0.001-15.894c2.124-2.123,4.946-3.292,7.948-3.292
					c3.003,0,5.824,1.169,7.947,3.292c4.382,4.382,4.382,11.512,0,15.894C270.149,350.092,267.328,351.261,264.325,351.261z
					 M264.325,331.048c-2.396,0-4.65,0.933-6.345,2.629c-3.498,3.498-3.499,9.191-0.001,12.688c1.694,1.695,3.95,2.629,6.346,2.629
					c2.396,0,4.648-0.934,6.345-2.629c3.498-3.497,3.498-9.19,0-12.688C268.974,331.98,266.722,331.048,264.325,331.048z"/>
			</g>
		</g>
		<g>
			<g>
				<path style="fill:#4BBDD7;" d="M249.831,349.147c-0.489,0.054-0.976,0.096-1.47,0.105c0-1.006,0-2.015,0-3.024
					c-1.542-3.985-1.542-8.428,0-12.414c0-1.189,0-2.377,0-3.566c0.633,0,1.267,0,1.9,0c0.493-0.709,1.044-1.388,1.659-2.031
					c-1.187,0-2.374,0-3.559,0c0-2.571,0-5.145,0-7.716c2.468,0,4.933,0,7.403,0c0.335,1.414,0.55,2.853,0.673,4.302
					c0.628-0.324,1.277-0.602,1.94-0.847c-0.122-1.16-0.301-2.316-0.555-3.455c2.534,0,5.065,0,7.6,0
					c0.403,0.807,0.728,1.655,1.014,2.521c0.816,0.1,1.617,0.261,2.4,0.473c-2.354-7.628-9.543-16.597-21.483-16.603
					c-15.201,0.008-22.706,14.543-22.333,22.342c0.592,12.386,10.418,22.021,22.333,22.337c1.337-0.037,2.645-0.206,3.918-0.467
					C250.739,350.481,250.259,349.827,249.831,349.147z M264.235,318.471c-2.314,0-4.629,0-6.949,0
					c-0.855-2.88-2.157-5.648-3.972-8.218C257.776,311.716,261.683,314.631,264.235,318.471z M248.361,309.261
					c0.596,0.046,1.192,0.122,1.778,0.216c2.372,2.742,4.027,5.788,5.06,8.994c-2.279,0-4.558,0-6.837,0
					C248.361,315.401,248.361,312.335,248.361,309.261z M241.39,310.253c-1.815,2.569-3.119,5.338-3.973,8.218
					c-2.321,0-4.635,0-6.95,0C233.022,314.631,236.927,311.716,241.39,310.253z M229.283,320.502c2.534,0,5.065,0,7.599,0
					c-0.561,2.523-0.793,5.113-0.746,7.716c-2.932,0-5.865,0-8.797,0C227.414,325.441,228.113,322.84,229.283,320.502z
					 M227.386,330.249c2.949,0,5.894,0,8.84,0c0.194,2.591,0.669,5.183,1.371,7.718c-2.697,0-5.397,0-8.094,0
					C228.332,335.579,227.593,332.957,227.386,330.249z M230.64,339.998c2.526,0,5.05,0,7.574,0
					c1.001,3.022,2.343,5.935,3.943,8.651C237.325,347.363,233.279,344.161,230.64,339.998z M246.343,349.253
					c-0.503-0.01-1-0.054-1.498-0.107c-1.813-2.814-3.341-5.909-4.482-9.148c1.995,0,3.988,0,5.98,0
					C246.343,343.083,246.343,346.168,246.343,349.253z M246.343,337.967c-2.208,0-4.418,0-6.63,0
					c-0.743-2.529-1.246-5.122-1.46-7.718c2.697,0,5.394,0,8.09,0C246.343,332.822,246.343,335.394,246.343,337.967z
					 M246.343,328.218c-2.729,0-5.46,0-8.192,0c-0.058-2.607,0.193-5.198,0.79-7.716c2.468,0,4.935,0,7.402,0
					C246.343,323.073,246.343,325.647,246.343,328.218z M246.343,318.471c-2.279,0-4.558,0-6.837,0
					c1.032-3.206,2.687-6.252,5.059-8.994c0.587-0.094,1.182-0.17,1.778-0.216C246.343,312.335,246.343,315.401,246.343,318.471z"/>
			</g>
		</g>
	</g>
	<g>
		<g>
			<g>
				<g>
					<g>
						<g>
							<path style="fill:#4BBDD7;" d="M396.695,303.494h-8.555v1.772h6.474l-22.833,16.781l-22.83-16.781h6.434v-1.772h-8.517
								h-1.211v1.295v35.07v1.294h1.211h49.826h1.212v-1.294v-35.07v-1.295H396.695z M347.43,306.299l22.985,16.91L347.43,338.35
								V306.299z M348.951,339.383l22.83-15.009l22.833,15.009H348.951z M396.135,338.35l-22.986-15.141l22.986-16.91V338.35z"/>
						</g>
					</g>
				</g>
			</g>
			<g>
				<g>
					<g>
						<rect x="361.061" y="291.316" style="fill:#FED65C;" width="21.441" height="2.188"/>
					</g>
					<g>
						<rect x="361.061" y="296.179" style="fill:#FED65C;" width="21.441" height="2.187"/>
					</g>
				</g>
				<g>
					<g>
						<rect x="361.061" y="301.038" style="fill:#FED65C;" width="21.441" height="2.188"/>
					</g>
					<g>
						<rect x="361.061" y="310.764" style="fill:#FED65C;" width="21.441" height="2.187"/>
					</g>
					<g>
						<rect x="361.061" y="305.9" style="fill:#FED65C;" width="21.441" height="2.188"/>
					</g>
				</g>
			</g>
		</g>
		<g>
			<g>
				<polygon style="fill:#428CAD;" points="388.906,310.764 387.135,310.764 387.135,289.051 381.086,284.615 355.977,284.615 
					355.977,310.764 354.203,310.764 354.203,282.843 381.664,282.843 388.906,288.152 				"/>
			</g>
		</g>
	</g>
	<g>
		<g>
			<g>
				<path style="fill:#428CAD;" d="M251.045,129.67H227.73c-4.056,0-7.357-3.3-7.357-7.355V91.33c0-4.057,3.301-7.357,7.357-7.357
					h23.314c4.057,0,7.357,3.301,7.357,7.357v30.985C258.402,126.37,255.102,129.67,251.045,129.67z M227.73,86.425
					c-2.704,0-4.905,2.201-4.905,4.905v30.985c0,2.703,2.201,4.903,4.905,4.903h23.314c2.706,0,4.905-2.2,4.905-4.903V91.33
					c0-2.704-2.199-4.905-4.905-4.905H227.73z"/>
			</g>
		</g>
		<g>
			<g>
				<path style="fill:#4BBDD7;" d="M251.831,100.225h-24.885V90.104h24.885V100.225z M229.399,97.772h19.98v-5.216h-19.98V97.772z"
					/>
			</g>
		</g>
		<g>
			<g>
				<g>
					<rect x="225.721" y="103.386" style="fill:#FED65C;" width="4.686" height="5.109"/>
				</g>
				<g>
					<rect x="233.593" y="103.386" style="fill:#FED65C;" width="4.687" height="5.109"/>
				</g>
				<g>
					<rect x="241.464" y="103.386" style="fill:#FED65C;" width="4.687" height="5.109"/>
				</g>
				<g>
					<rect x="249.338" y="103.386" style="fill:#FED65C;" width="4.684" height="5.109"/>
				</g>
			</g>
			<g>
				<g>
					<rect x="225.721" y="110.743" style="fill:#FED65C;" width="4.686" height="5.109"/>
				</g>
				<g>
					<rect x="233.593" y="110.743" style="fill:#FED65C;" width="4.687" height="5.109"/>
				</g>
				<g>
					<rect x="241.464" y="110.743" style="fill:#FED65C;" width="4.687" height="5.109"/>
				</g>
			</g>
			<g>
				<g>
					<rect x="225.721" y="118.101" style="fill:#FED65C;" width="4.686" height="5.107"/>
				</g>
				<g>
					<rect x="233.593" y="118.101" style="fill:#FED65C;" width="4.687" height="5.107"/>
				</g>
				<g>
					<rect x="241.464" y="118.101" style="fill:#FED65C;" width="4.687" height="5.107"/>
				</g>
				<g>
					<polygon style="fill:#EB5A49;" points="249.338,110.743 249.338,118.101 249.338,120.653 249.338,123.207 254.021,123.207 
						254.021,120.653 254.021,118.101 254.021,110.743 					"/>
				</g>
			</g>
		</g>
	</g>
	<g>
		<g>
			<g>
				<g>
					<path style="fill:#FED65C;" d="M341.721,416.31h-15.229c-1.799,0-3.261-1.595-3.261-3.556c0-1.96,1.462-3.556,3.261-3.556
						h15.229c1.798,0,3.261,1.596,3.261,3.556C344.981,414.715,343.519,416.31,341.721,416.31z M326.492,411.322
						c-0.626,0-1.137,0.643-1.137,1.432c0,0.775,0.521,1.431,1.137,1.431h15.229c0.616,0,1.136-0.655,1.136-1.431
						c0-0.789-0.509-1.432-1.136-1.432H326.492z"/>
				</g>
			</g>
			<g>
				<path style="fill:#FED65C;" d="M344.981,407.433h-21.75v-7.727c-2.695-2.805-4.225-6.565-4.225-10.452
					c0-8.326,6.774-15.1,15.1-15.1c8.327,0,15.102,6.773,15.102,15.1c0,3.889-1.53,7.649-4.227,10.454V407.433z M325.355,405.309
					h17.501v-4.675h-1.977l2.004-1.844c2.669-2.457,4.2-5.934,4.2-9.537c0-7.154-5.821-12.976-12.977-12.976
					c-7.154,0-12.975,5.821-12.975,12.976c0,3.604,1.531,7.08,4.2,9.537l2.002,1.844h-1.979V405.309z"/>
			</g>
		</g>
		<g>
			<g>
				<g>
					<g>
						<path style="fill:#4BBDD7;" d="M357.965,369.44c-2.15,1.661-4.298,3.317-6.448,4.979c-1.394,1.073,0.273,3.236,1.668,2.159
							c2.149-1.657,4.299-3.314,6.449-4.975C361.027,370.527,359.358,368.364,357.965,369.44L357.965,369.44z"/>
					</g>
				</g>
				<g>
					<g>
						<g>
							<path style="fill:#4BBDD7;" d="M344.111,360.289c-0.976,2.535-1.947,5.068-2.922,7.604c-0.631,1.643,1.918,2.622,2.548,0.978
								c0.976-2.535,1.947-5.067,2.924-7.601C347.292,359.625,344.742,358.646,344.111,360.289L344.111,360.289z"/>
						</g>
					</g>
					<g>
						<g>
							<path style="fill:#4BBDD7;" d="M364.975,387.324c-2.7,0.301-5.398,0.6-8.098,0.898c-1.748,0.195-2.052-2.521-0.3-2.713
								c2.698-0.301,5.397-0.6,8.094-0.901C366.423,384.417,366.725,387.132,364.975,387.324L364.975,387.324z"/>
						</g>
					</g>
				</g>
			</g>
			<g>
				<g>
					<g>
						<path style="fill:#4BBDD7;" d="M310.248,369.44c2.15,1.661,4.297,3.317,6.447,4.979c1.396,1.073-0.272,3.236-1.668,2.159
							c-2.149-1.657-4.299-3.314-6.449-4.975C307.185,370.527,308.855,368.364,310.248,369.44L310.248,369.44z"/>
					</g>
				</g>
				<g>
					<g>
						<g>
							<path style="fill:#4BBDD7;" d="M324.102,360.289c0.974,2.535,1.947,5.068,2.92,7.604c0.633,1.643-1.916,2.622-2.548,0.978
								c-0.974-2.535-1.947-5.067-2.923-7.601C320.921,359.625,323.471,358.646,324.102,360.289L324.102,360.289z"/>
						</g>
					</g>
					<g>
						<g>
							<path style="fill:#4BBDD7;" d="M303.239,387.324c2.699,0.301,5.397,0.6,8.097,0.898c1.749,0.195,2.052-2.521,0.3-2.713
								c-2.698-0.301-5.396-0.6-8.094-0.901C301.79,384.417,301.489,387.132,303.239,387.324L303.239,387.324z"/>
						</g>
					</g>
				</g>
			</g>
		</g>
	</g>
	<g>
		<g>
			<path style="fill:#4BBDD7;" d="M271.576,432.765h-41.292c-7.593,0-13.771-5.605-13.771-12.496c0-5.81,5.381-11.69,15.681-12.036
				c1.066-7.645,8.98-10.97,12.996-10.97c1.157,0,2.319,0.159,3.464,0.476c2.829-5.649,8.606-9.249,14.976-9.249
				c9.234,0,16.747,7.514,16.747,16.748c0,1.662-0.252,3.311-0.749,4.915c3.597,2.358,5.718,6.082,5.718,10.116
				C285.347,427.159,279.169,432.765,271.576,432.765z M233.159,410.342c-9.532,0-14.52,4.993-14.52,9.927
				c0,5.72,5.224,10.372,11.646,10.372h41.292c6.422,0,11.646-4.652,11.646-10.372c0-3.535-2.019-6.8-5.398-8.731l-0.78-0.444
				l0.31-0.844c0.597-1.625,0.899-3.313,0.899-5.012c0-8.064-6.559-14.623-14.622-14.623c-5.843,0-11.114,3.469-13.431,8.837
				l-0.393,0.911l-0.935-0.33c-1.214-0.429-2.452-0.646-3.681-0.646c-3.056,0-10.553,2.864-10.973,9.955l-0.059,1H233.159z"/>
		</g>
		<g>
			<g>
				<polygon style="fill:#EB5A49;" points="258.46,417.911 258.46,405.773 254.977,405.773 254.977,417.911 253.104,417.911 
					256.653,422.906 256.653,422.999 256.685,422.951 256.719,422.999 256.719,422.906 260.269,417.911 				"/>
			</g>
			<g>
				<polygon style="fill:#EB5A49;" points="245.444,410.862 245.444,422.999 248.928,422.999 248.928,410.862 250.802,410.862 
					247.252,405.865 247.252,405.773 247.22,405.819 247.186,405.773 247.186,405.865 243.637,410.862 				"/>
			</g>
		</g>
	</g>
	<g>
		<g>
			<path style="fill:#428CAD;" d="M452.056,263.324h-70.114v-94.477h60.881l9.233,13.191V263.324z M384.066,261.2h65.865v-78.491
				l-8.215-11.737h-57.65V261.2z"/>
		</g>
		<g>
			<polygon style="fill:#428CAD;" points="450.993,183.436 441.207,183.436 441.207,169.909 443.331,169.909 443.331,181.311 
				450.993,181.311 			"/>
		</g>
		<g>
			<g>
				<g>
					<rect x="389.235" y="187.876" style="fill:#4BBDD7;" width="55.525" height="2.125"/>
				</g>
				<g>
					<rect x="389.235" y="196.94" style="fill:#4BBDD7;" width="55.525" height="2.125"/>
				</g>
				<g>
					<rect x="389.235" y="206.006" style="fill:#4BBDD7;" width="55.525" height="2.125"/>
				</g>
				<g>
					<rect x="389.235" y="240.001" style="fill:#4BBDD7;" width="55.525" height="2.125"/>
				</g>
				<g>
					<rect x="389.235" y="249.067" style="fill:#4BBDD7;" width="55.525" height="2.125"/>
				</g>
			</g>
			<g>
				<path style="fill:#4BBDD7;" d="M397.588,213.031c-1.546,2.012-3.091,4.026-4.637,6.037c-0.8-1.003-1.602-2.005-2.4-3.009
					c-0.642-0.805-1.761,0.332-1.127,1.126c0.993,1.244,1.982,2.486,2.975,3.73c0.354,0.445,0.974,0.201,1.252-0.162
					c1.771-2.304,3.542-4.613,5.316-6.918C399.591,213.02,398.206,212.227,397.588,213.031z"/>
			</g>
			<g>
				<path style="fill:#4BBDD7;" d="M397.588,224.363c-1.546,2.011-3.091,4.026-4.637,6.036c-0.8-1.002-1.602-2.005-2.4-3.01
					c-0.642-0.804-1.761,0.334-1.127,1.128c0.993,1.244,1.982,2.486,2.975,3.73c0.354,0.445,0.974,0.201,1.252-0.162
					c1.771-2.305,3.542-4.612,5.316-6.918C399.591,224.351,398.206,223.559,397.588,224.363z"/>
			</g>
			<g>
				<rect x="404.188" y="217.338" style="fill:#4BBDD7;" width="40.573" height="2.125"/>
			</g>
			<g>
				<rect x="404.188" y="228.67" style="fill:#4BBDD7;" width="40.573" height="2.125"/>
			</g>
		</g>
	</g>
	<g>
		<g>
			<path style="fill:#4BBDD7;" d="M395.639,150.882L395.639,150.882l-2.428-0.006c-0.773-0.002-1.502-0.307-2.051-0.859
				c-0.549-0.552-0.85-1.283-0.847-2.058l0.001-0.674c-1.425-0.376-2.783-0.945-4.059-1.697l-0.479,0.479
				c-1.1,1.094-3.019,1.088-4.114-0.011l-1.706-1.713c-1.129-1.138-1.124-2.982,0.01-4.113l0.482-0.479
				c-0.745-1.279-1.307-2.641-1.676-4.066l-0.675-0.002c-1.602-0.002-2.904-1.31-2.902-2.914l0.008-2.421
				c0.005-1.6,1.31-2.9,2.909-2.9l0.681,0.001c0.376-1.421,0.944-2.78,1.697-4.057l-0.479-0.481
				c-0.547-0.549-0.848-1.281-0.845-2.06c0.002-0.779,0.306-1.508,0.857-2.054l1.714-1.705c1.097-1.091,3.016-1.09,4.113,0.01
				l0.478,0.481c1.278-0.745,2.64-1.306,4.065-1.675l0.001-0.674c0.004-1.6,1.309-2.901,2.908-2.901l2.428,0.006
				c1.604,0.004,2.905,1.312,2.902,2.914l-0.002,0.676c1.422,0.376,2.781,0.944,4.056,1.697l0.483-0.48
				c1.094-1.092,3.02-1.088,4.111,0.013l1.705,1.712c1.131,1.137,1.127,2.982-0.009,4.114l-0.483,0.479
				c0.744,1.278,1.306,2.64,1.675,4.065l0.677,0.002c1.602,0.004,2.903,1.312,2.9,2.914l-0.006,2.419
				c-0.003,1.599-1.307,2.901-2.908,2.901l-0.683-0.002c-0.377,1.423-0.945,2.781-1.697,4.058l0.479,0.48
				c0.548,0.549,0.848,1.28,0.846,2.059c-0.003,0.779-0.307,1.509-0.858,2.055l-1.712,1.706c-1.102,1.095-3.02,1.088-4.113-0.009
				l-0.479-0.482c-1.278,0.746-2.641,1.307-4.065,1.675l-0.001,0.674C398.545,149.581,397.239,150.882,395.639,150.882z
				 M385.97,142.875l0.723,0.48c1.5,0.997,3.149,1.687,4.901,2.05l0.849,0.176l-0.005,2.383c-0.001,0.208,0.081,0.405,0.229,0.555
				c0.148,0.15,0.344,0.232,0.551,0.232l2.42,0.006l0.001,1.062v-1.062c0.425,0,0.783-0.358,0.784-0.781l0.003-2.386l0.853-0.171
				c1.753-0.354,3.405-1.034,4.911-2.024l0.726-0.476l1.685,1.695c0.288,0.29,0.814,0.295,1.109,0.001l1.712-1.706
				c0.148-0.147,0.229-0.344,0.23-0.555c0-0.21-0.08-0.407-0.225-0.553l-1.689-1.693l0.48-0.722c0.998-1.505,1.688-3.154,2.05-4.903
				l0.177-0.849l2.386,0.007c0.433,0,0.784-0.35,0.784-0.78l0.006-2.421c0.001-0.424-0.357-0.784-0.782-0.785l-2.385-0.007
				l-0.172-0.849c-0.354-1.752-1.035-3.404-2.024-4.911l-0.476-0.726l1.695-1.685c0.146-0.146,0.228-0.343,0.228-0.553
				c0.001-0.211-0.079-0.408-0.226-0.555l-1.707-1.714c-0.292-0.295-0.812-0.295-1.104-0.005l-1.696,1.687l-0.722-0.479
				c-1.503-0.998-3.152-1.688-4.901-2.05l-0.85-0.176l0.008-2.387c0.001-0.43-0.35-0.783-0.783-0.784l-2.419-0.006
				c-0.426,0-0.785,0.357-0.786,0.78l-0.005,2.385l-0.85,0.172c-1.755,0.355-3.407,1.036-4.912,2.024l-0.726,0.476l-1.683-1.693
				c-0.294-0.294-0.818-0.295-1.108-0.004l-1.716,1.707c-0.147,0.147-0.229,0.343-0.229,0.553c-0.001,0.21,0.08,0.408,0.227,0.555
				l1.685,1.694l-0.48,0.722c-0.998,1.507-1.688,3.156-2.049,4.901l-0.177,0.849l-2.383-0.005c-0.426,0-0.786,0.358-0.787,0.782
				l-0.007,2.419c0,0.424,0.357,0.784,0.783,0.785l2.384,0.007l0.172,0.849c0.353,1.751,1.035,3.405,2.024,4.913l0.475,0.725
				l-1.692,1.684c-0.306,0.304-0.307,0.802-0.002,1.109l1.706,1.712c0.291,0.294,0.814,0.297,1.108,0.004L385.97,142.875z
				 M394.472,140.333c-4.834-0.012-8.738-3.936-8.728-8.748c0.013-4.8,3.928-8.705,8.727-8.705h0.022
				c2.331,0.006,4.521,0.92,6.164,2.572c1.645,1.653,2.547,3.847,2.54,6.178C403.185,136.429,399.271,140.333,394.472,140.333z
				 M394.471,123.942v1.062c-3.63,0-6.593,2.955-6.602,6.586c-0.01,3.64,2.945,6.609,6.586,6.618c3.647,0,6.608-2.954,6.617-6.585
				c0.006-1.764-0.677-3.423-1.921-4.673c-1.244-1.25-2.899-1.941-4.664-1.946L394.471,123.942z"/>
		</g>
		<g>
			<path style="fill:#FED65C;" d="M363.204,123.89L363.204,123.89l-2.426-0.006c-0.774-0.002-1.504-0.307-2.053-0.859
				c-0.549-0.552-0.85-1.283-0.848-2.057l0.002-0.674c-1.427-0.377-2.785-0.944-4.06-1.697l-0.481,0.48
				c-1.093,1.09-3.02,1.089-4.111-0.013l-1.706-1.713c-0.546-0.549-0.846-1.28-0.845-2.058c0.002-0.778,0.305-1.508,0.854-2.054
				l0.482-0.479c-0.746-1.28-1.308-2.641-1.677-4.065l-0.672-0.002c-0.776-0.002-1.505-0.307-2.055-0.858
				c-0.55-0.552-0.851-1.283-0.849-2.058l0.007-2.419c0.005-1.6,1.309-2.901,2.907-2.901l0.683,0.001
				c0.376-1.423,0.944-2.781,1.696-4.057l-0.478-0.481c-0.547-0.55-0.847-1.281-0.845-2.059c0.002-0.779,0.305-1.509,0.854-2.055
				l1.716-1.706c1.101-1.093,3.02-1.087,4.113,0.01l0.478,0.481c1.276-0.746,2.639-1.307,4.066-1.676l0.001-0.674
				c0.002-1.599,1.306-2.901,2.907-2.901l2.427,0.005c1.602,0.003,2.903,1.311,2.901,2.914l-0.002,0.677
				c1.426,0.377,2.784,0.945,4.057,1.697l0.482-0.48c1.098-1.093,3.022-1.086,4.112,0.012l1.705,1.714
				c0.545,0.546,0.847,1.276,0.846,2.055c-0.001,0.78-0.304,1.51-0.853,2.058l-0.482,0.479c0.745,1.28,1.307,2.642,1.675,4.065
				l0.675,0.002c0.774,0.001,1.503,0.307,2.053,0.858c0.549,0.552,0.851,1.282,0.849,2.057l-0.007,2.42
				c-0.003,1.599-1.309,2.9-2.908,2.9l-0.682-0.001c-0.377,1.424-0.945,2.783-1.696,4.057l0.479,0.482
				c0.547,0.547,0.847,1.278,0.846,2.057c-0.002,0.779-0.306,1.509-0.855,2.056l-1.713,1.706c-1.103,1.094-3.02,1.088-4.115-0.011
				l-0.479-0.481c-1.279,0.746-2.641,1.308-4.066,1.677l-0.001,0.675C366.107,122.589,364.803,123.89,363.204,123.89z
				 M353.536,115.884l0.723,0.479c1.498,0.997,3.147,1.686,4.901,2.049l0.849,0.176l-0.007,2.385
				c-0.001,0.207,0.081,0.403,0.229,0.553c0.15,0.149,0.345,0.232,0.552,0.232l2.417,0.006l0.004,1.062v-1.062
				c0.423,0,0.783-0.358,0.784-0.781l0.005-2.384l0.85-0.172c1.752-0.354,3.405-1.036,4.913-2.025l0.725-0.476l1.685,1.695
				c0.289,0.293,0.813,0.293,1.11,0.001l1.712-1.705c0.148-0.148,0.229-0.343,0.23-0.554c0-0.21-0.08-0.407-0.227-0.553
				l-1.685-1.695l0.479-0.722c0.994-1.5,1.685-3.149,2.051-4.902l0.176-0.847l2.382,0.004c0.433,0,0.784-0.351,0.785-0.781
				l0.008-2.421c0-0.206-0.081-0.403-0.23-0.552c-0.148-0.149-0.345-0.232-0.552-0.232l-2.385-0.007l-0.173-0.85
				c-0.353-1.749-1.033-3.401-2.022-4.912l-0.476-0.726l1.694-1.684c0.146-0.146,0.228-0.343,0.228-0.554
				c0-0.21-0.08-0.407-0.227-0.553l-1.706-1.716c-0.293-0.293-0.814-0.296-1.108-0.004l-1.695,1.687l-0.723-0.48
				c-1.498-0.997-3.147-1.686-4.899-2.049l-0.849-0.176l0.007-2.385c0-0.431-0.35-0.785-0.781-0.786l-2.421-0.005
				c-0.426,0-0.785,0.356-0.785,0.779l-0.005,2.386l-0.85,0.171c-1.756,0.355-3.409,1.037-4.912,2.025l-0.726,0.477l-1.684-1.695
				c-0.292-0.292-0.815-0.294-1.109-0.002l-1.716,1.706c-0.148,0.147-0.229,0.343-0.229,0.553c0,0.211,0.08,0.409,0.227,0.556
				l1.685,1.692l-0.479,0.722c-0.996,1.503-1.686,3.153-2.049,4.901l-0.176,0.848l-2.384-0.004c-0.434,0-0.784,0.351-0.785,0.783
				l-0.008,2.419c-0.001,0.207,0.081,0.402,0.229,0.552c0.149,0.15,0.347,0.233,0.555,0.233l2.382,0.006l0.173,0.85
				c0.353,1.751,1.035,3.403,2.024,4.912l0.477,0.725l-1.695,1.685c-0.147,0.146-0.228,0.342-0.229,0.553
				c0,0.211,0.081,0.408,0.228,0.555l1.705,1.715c0.293,0.294,0.814,0.295,1.104,0.005L353.536,115.884z M362.037,113.34
				c-4.835-0.012-8.739-3.936-8.728-8.748c0.015-4.799,3.93-8.703,8.727-8.703h0.024c2.33,0.005,4.518,0.918,6.163,2.57
				c1.643,1.653,2.546,3.847,2.539,6.178C370.75,109.436,366.837,113.34,362.037,113.34z M362.035,96.951v1.063
				c-3.63,0-6.592,2.954-6.603,6.584c-0.008,3.64,2.946,6.609,6.587,6.618c3.647,0,6.608-2.954,6.618-6.584
				c0.005-1.764-0.678-3.423-1.922-4.673c-1.243-1.25-2.899-1.94-4.661-1.944L362.035,96.951z"/>
		</g>
		<g>
			<path style="fill:#EB5A49;" d="M399.576,110.737L399.576,110.737l-1.865-0.004c-0.662-0.001-1.283-0.262-1.753-0.733
				c-0.467-0.471-0.724-1.094-0.722-1.754l0.001-0.331c-0.99-0.277-1.939-0.674-2.836-1.186l-0.235,0.235
				c-0.936,0.931-2.575,0.93-3.511-0.008l-1.313-1.319c-0.467-0.468-0.723-1.092-0.722-1.757c0.002-0.665,0.263-1.287,0.732-1.753
				l0.235-0.234c-0.507-0.9-0.898-1.85-1.171-2.841l-0.33-0.001c-0.662-0.002-1.283-0.262-1.752-0.732
				c-0.47-0.471-0.728-1.095-0.725-1.757l0.006-1.858c0.004-1.365,1.116-2.476,2.479-2.476l0.341,0.001
				c0.277-0.99,0.674-1.938,1.185-2.834l-0.234-0.236c-0.468-0.47-0.724-1.094-0.722-1.758c0.002-0.665,0.261-1.288,0.73-1.754
				l1.315-1.31c0.942-0.936,2.578-0.93,3.512,0.009l0.235,0.236c0.897-0.506,1.848-0.898,2.84-1.171l0.001-0.331
				c0.002-1.365,1.116-2.476,2.483-2.476l1.866,0.004c0.661,0.002,1.284,0.262,1.752,0.733c0.467,0.471,0.724,1.094,0.722,1.755
				l-0.001,0.331c0.991,0.277,1.94,0.674,2.836,1.186l0.238-0.236c0.936-0.932,2.576-0.928,3.508,0.009l1.313,1.319
				c0.467,0.466,0.723,1.091,0.721,1.757c-0.002,0.663-0.26,1.285-0.728,1.752l-0.239,0.237c0.508,0.9,0.898,1.85,1.171,2.84
				l0.331,0c1.368,0.004,2.479,1.12,2.476,2.488l-0.005,1.861c-0.003,1.363-1.115,2.475-2.481,2.475l-0.338-0.001
				c-0.277,0.99-0.674,1.938-1.186,2.835l0.235,0.236c0.467,0.467,0.724,1.091,0.723,1.756c-0.001,0.665-0.261,1.288-0.729,1.754
				l-1.319,1.313c-0.94,0.933-2.579,0.927-3.51-0.008l-0.236-0.238c-0.899,0.507-1.849,0.898-2.839,1.171l-0.002,0.331
				C402.055,109.627,400.941,110.737,399.576,110.737z M392.109,104.021l0.723,0.479c1.128,0.749,2.368,1.267,3.685,1.54
				l0.848,0.175l-0.003,2.034c0,0.128,0.064,0.213,0.104,0.253c0.039,0.039,0.123,0.105,0.249,0.105l1.859,0.004l0.002,1.062v-1.062
				l0,0c0.193,0,0.358-0.163,0.358-0.355l0.005-2.035l0.851-0.172c1.315-0.265,2.557-0.777,3.688-1.521l0.726-0.477l1.436,1.446
				c0.178,0.178,0.327,0.181,0.507,0l1.319-1.313c0.089-0.089,0.102-0.196,0.102-0.251c0-0.056-0.013-0.163-0.101-0.252l-1.44-1.446
				l0.479-0.722c0.749-1.127,1.269-2.367,1.541-3.683l0.177-0.849l2.034,0.005c0.192,0,0.356-0.163,0.356-0.355l0.005-1.862
				c0.001-0.193-0.161-0.357-0.355-0.358l-2.034-0.005l-0.172-0.85c-0.266-1.314-0.777-2.557-1.522-3.691l-0.476-0.725l1.446-1.436
				c0.089-0.089,0.103-0.197,0.103-0.253c0.001-0.055-0.013-0.161-0.101-0.25l-1.313-1.321c-0.176-0.177-0.325-0.183-0.504-0.001
				l-1.447,1.438l-0.723-0.479c-1.126-0.749-2.366-1.267-3.683-1.54l-0.847-0.175l0.003-2.034c0-0.128-0.066-0.214-0.105-0.253
				c-0.039-0.039-0.123-0.106-0.249-0.106l-1.86-0.004c-0.195,0-0.36,0.163-0.36,0.355l-0.003,2.035l-0.85,0.171
				c-1.319,0.267-2.562,0.779-3.69,1.521l-0.726,0.477l-1.438-1.444c-0.179-0.181-0.324-0.182-0.507-0.002l-1.316,1.312
				c-0.091,0.09-0.104,0.197-0.104,0.252c0,0.056,0.014,0.164,0.103,0.254l1.436,1.442l-0.478,0.723
				c-0.748,1.128-1.267,2.367-1.54,3.684l-0.176,0.848l-2.034-0.005c-0.195,0-0.358,0.164-0.358,0.357l-0.005,1.86
				c0,0.126,0.065,0.21,0.104,0.25c0.041,0.04,0.127,0.107,0.254,0.108l2.032,0.005l0.173,0.85c0.266,1.316,0.776,2.558,1.52,3.691
				l0.475,0.724l-1.441,1.437c-0.092,0.091-0.104,0.198-0.107,0.253c0,0.055,0.014,0.162,0.104,0.252l1.312,1.319
				c0.179,0.18,0.329,0.179,0.506,0.002L392.109,104.021z M398.681,102.626c-3.855-0.01-6.967-3.138-6.958-6.973
				c0.01-3.826,3.131-6.938,6.957-6.938h0.018c1.857,0.004,3.602,0.732,4.912,2.05c1.31,1.317,2.028,3.065,2.023,4.923
				C405.624,99.513,402.505,102.626,398.681,102.626z M398.68,89.776v1.063c-2.658,0-4.825,2.162-4.832,4.819
				c-0.008,2.664,2.155,4.836,4.82,4.843c2.668,0,4.834-2.162,4.842-4.819c0.004-1.291-0.496-2.505-1.406-3.42
				c-0.909-0.914-2.121-1.42-3.411-1.423L398.68,89.776z"/>
		</g>
	</g>
	<g>
		<g>
			<g>
				<g>
					<path style="fill:#428CAD;" d="M161.058,99.005c-12.973,0-21.137-3.17-24.266-9.419c-5.298-10.586,5.938-25.796,6.419-26.439
						l0.318-0.426h35.056l0.318,0.426c0.481,0.642,11.717,15.853,6.418,26.438C182.195,95.836,174.031,99.005,161.058,99.005z
						 M144.608,64.847c-1.74,2.487-10.176,15.283-5.914,23.791c2.74,5.47,10.264,8.243,22.364,8.243
						c12.102,0,19.627-2.774,22.366-8.246c4.264-8.521-4.174-21.304-5.915-23.789H144.608z"/>
				</g>
				<g>
					<path style="fill:#428CAD;" d="M177.688,64.462h-33.26l-3.871-7.642h41.001L177.688,64.462z M145.733,62.338h30.65l1.718-3.393
						h-34.086L145.733,62.338z"/>
				</g>
			</g>
			<g>
				<path style="fill:#4BBDD7;" d="M180.272,63.522c0,0.761-0.618,1.377-1.379,1.377h-35.67c-0.76,0-1.378-0.616-1.378-1.377l0,0
					c0-0.761,0.618-1.379,1.378-1.379h35.67C179.654,62.143,180.272,62.761,180.272,63.522L180.272,63.522z"/>
			</g>
		</g>
		<g>
			<g>
				<path style="fill:#FED65C;" d="M164.026,77.501c-0.561-0.928-2.157-1.639-3.646-1.639c-1.79,0-3.43,0.518-3.43,2.028
					c0,1.424,1.704,1.683,3.517,1.898c3.15,0.388,6.516,0.95,6.516,4.747c0,2.913-2.438,4.552-5.113,4.746v2.158h-2.74V89.39
					c-2.416-0.216-4.66-1.317-5.675-3.689l2.546-1.08c0.582,1.381,2.502,2.266,4.294,2.266c1.941,0,3.731-0.669,3.731-2.352
					c0-1.424-1.79-1.942-3.797-2.18c-3.085-0.345-6.106-0.884-6.106-4.466c0-2.826,2.503-4.121,5.006-4.423v-1.876h2.74v1.876
					c1.833,0.281,3.516,0.971,4.487,2.956L164.026,77.501z"/>
			</g>
		</g>
	</g>
	<g>
		<g>
			<path style="fill:#4BBDD7;" d="M113.404,141.075H66.767l0.472-1.401c0.18-0.536,4.339-12.631,13.341-17.991
				c-2.08-2.222-3.248-5.147-3.248-8.23c0-6.645,5.405-12.05,12.05-12.05c6.645,0,12.05,5.405,12.05,12.05
				c0,3.056-1.149,5.959-3.196,8.173c9.381,5.314,14.363,17.453,14.579,17.99L113.404,141.075z M69.793,138.951h40.391
				c-1.699-3.535-6.621-12.52-14.209-16.107l-1.502-0.71l1.274-1.065c2.264-1.893,3.562-4.668,3.562-7.615
				c0-5.473-4.453-9.925-9.926-9.925c-5.473,0-9.925,4.452-9.925,9.925c0,2.963,1.31,5.749,3.596,7.646l1.26,1.045l-1.468,0.725
				C75.524,126.483,71.227,135.475,69.793,138.951z"/>
		</g>
		<g>
			<path style="fill:#FED65C;" d="M142.757,135.658H108.7l0.472-1.401c0.127-0.38,3.025-8.809,9.308-12.771
				c-1.376-1.599-2.144-3.641-2.144-5.786c0-4.896,3.984-8.879,8.881-8.879c4.895,0,8.878,3.983,8.878,8.879
				c0,2.123-0.753,4.146-2.104,5.738c6.558,3.926,10.025,12.38,10.179,12.76L142.757,135.658z M111.739,133.533h27.782
				c-1.359-2.72-4.725-8.501-9.749-10.875l-1.502-0.71l1.275-1.066c1.541-1.288,2.425-3.177,2.425-5.182
				c0-3.724-3.029-6.754-6.753-6.754c-3.726,0-6.756,3.03-6.756,6.754c0,2.016,0.892,3.912,2.448,5.203l1.26,1.045l-1.468,0.725
				C115.844,125.07,112.89,130.856,111.739,133.533z"/>
		</g>
	</g>
	<g>
		<g>
			<polygon style="fill:#428CAD;" points="334.196,93.372 288.876,93.372 288.876,49.683 291,49.683 291,91.248 334.196,91.248 			
				"/>
		</g>
		<g>
			<g>
				<path style="fill:#4BBDD7;" d="M294.218,86.896c4.836-8.441,9.672-16.884,14.507-25.326c-0.612,0-1.225,0-1.838,0
					c2.522,3.932,5.047,7.865,7.568,11.796c0.45,0.701,1.383,0.669,1.839,0c5.045-7.4,10.091-14.801,15.138-22.201
					c0.775-1.138-1.069-2.202-1.839-1.075c-5.045,7.401-10.091,14.801-15.138,22.202c0.613,0,1.227,0,1.839,0
					c-2.523-3.932-5.047-7.864-7.569-11.796c-0.423-0.661-1.428-0.717-1.838,0c-4.835,8.441-9.671,16.884-14.507,25.326
					C291.697,87.016,293.537,88.087,294.218,86.896L294.218,86.896z"/>
			</g>
		</g>
		<g>
			<g>
				<path style="fill:#EB5A49;" d="M293.582,77.272c2.336-0.425,4.674-0.851,7.01-1.276c1.332-0.242,2.662-0.484,3.993-0.727
					c0.887-0.162-1.006-0.663-0.51-0.16c0.278,0.283,0.556,0.565,0.835,0.849c3.658,3.718,7.315,7.436,10.974,11.154
					c0.499,0.507,1.304,0.354,1.672-0.215c5.853-9.019,11.707-18.039,17.56-27.058c0.749-1.155-1.094-2.221-1.838-1.074
					c-5.854,9.019-11.707,18.039-17.559,27.058c0.557-0.071,1.115-0.144,1.672-0.215c-3.867-3.931-7.734-7.861-11.602-11.791
					c-1.145-1.163-2.63-0.443-4.101-0.175c-2.891,0.526-5.78,1.053-8.671,1.579C291.666,75.465,292.241,77.518,293.582,77.272
					L293.582,77.272z"/>
			</g>
		</g>
	</g>
	<g>
		<g>
			<g>
				<polygon style="fill:#428CAD;" points="216.073,53.603 213.949,53.603 213.949,45.139 238.278,45.139 238.278,37.996 
					240.403,37.996 240.403,47.264 216.073,47.264 				"/>
			</g>
			<g>
				<polygon style="fill:#428CAD;" points="264.157,53.603 262.033,53.603 262.033,47.264 237.704,47.264 237.704,37.996 
					239.829,37.996 239.829,45.139 264.157,45.139 				"/>
			</g>
			<g>
				<rect x="237.974" y="45.799" style="fill:#428CAD;" width="2.125" height="7.804"/>
			</g>
		</g>
		<g>
			<path style="fill:#4BBDD7;" d="M220.414,63.974h-10.806c-2.197,0-3.984-1.788-3.984-3.985v-3.463
				c0-2.197,1.787-3.985,3.984-3.985h10.806c2.197,0,3.985,1.788,3.985,3.985v3.463C224.399,62.186,222.611,63.974,220.414,63.974z
				 M209.608,54.665c-1.025,0-1.86,0.834-1.86,1.86v3.463c0,1.026,0.834,1.86,1.86,1.86h10.806c1.026,0,1.861-0.834,1.861-1.86
				v-3.463c0-1.026-0.835-1.86-1.861-1.86H209.608z"/>
		</g>
		<g>
			<path style="fill:#EB5A49;" d="M244.169,63.974h-10.807c-2.197,0-3.984-1.788-3.984-3.985v-3.463
				c0-2.197,1.788-3.985,3.984-3.985h10.807c2.197,0,3.985,1.788,3.985,3.985v3.463C248.154,62.186,246.366,63.974,244.169,63.974z
				 M233.362,54.665c-1.025,0-1.86,0.834-1.86,1.86v3.463c0,1.026,0.835,1.86,1.86,1.86h10.807c1.026,0,1.86-0.834,1.86-1.86v-3.463
				c0-1.026-0.835-1.86-1.86-1.86H233.362z"/>
		</g>
		<g>
			<path style="fill:#FED65C;" d="M268.498,63.974h-10.807c-2.197,0-3.984-1.788-3.984-3.985v-3.463
				c0-2.197,1.787-3.985,3.984-3.985h10.807c2.197,0,3.985,1.788,3.985,3.985v3.463C272.483,62.186,270.695,63.974,268.498,63.974z
				 M257.691,54.665c-1.025,0-1.859,0.834-1.859,1.86v3.463c0,1.026,0.834,1.86,1.859,1.86h10.807c1.025,0,1.861-0.834,1.861-1.86
				v-3.463c0-1.026-0.836-1.86-1.861-1.86H257.691z"/>
		</g>
		<g>
			<path style="fill:#428CAD;" d="M246.221,40.056h-14.37c-2.729,0-4.949-2.22-4.949-4.949V30.5c0-2.729,2.22-4.949,4.949-4.949
				h14.37c2.729,0,4.949,2.22,4.949,4.949v4.606C251.17,37.836,248.95,40.056,246.221,40.056z M231.851,27.676
				c-1.558,0-2.825,1.267-2.825,2.824v4.606c0,1.557,1.267,2.824,2.825,2.824h14.37c1.558,0,2.825-1.267,2.825-2.824V30.5
				c0-1.557-1.268-2.824-2.825-2.824H231.851z"/>
		</g>
	</g>
	<g>
		<path style="fill:#FFEAAE;" d="M158.257,110.896c0,1.326-1.076,2.401-2.402,2.401c-1.326,0-2.401-1.075-2.401-2.401
			c0-1.326,1.075-2.401,2.401-2.401C157.181,108.495,158.257,109.57,158.257,110.896z"/>
		<path style="fill:#FFEAAE;" d="M184.191,125.048c0,2.094-1.697,3.792-3.792,3.792c-2.094,0-3.792-1.698-3.792-3.792
			c0-2.094,1.698-3.792,3.792-3.792C182.494,121.257,184.191,122.954,184.191,125.048z"/>
		<path style="fill:#FFEAAE;" d="M203.606,101.403c0,3.304-2.678,5.982-5.983,5.982c-3.304,0-5.982-2.679-5.982-5.982
			c0-3.304,2.678-5.982,5.982-5.982C200.928,95.421,203.606,98.1,203.606,101.403z"/>
		<path style="fill:#FFEAAE;" d="M192.03,54.941c0,1.326-1.075,2.401-2.401,2.401c-1.326,0-2.401-1.075-2.401-2.401
			c0-1.326,1.075-2.401,2.401-2.401C190.955,52.541,192.03,53.616,192.03,54.941z"/>
		<path style="fill:#FFEAAE;" d="M120.85,95.165c0,1.326-1.075,2.401-2.402,2.401c-1.326,0-2.401-1.075-2.401-2.401
			c0-1.326,1.075-2.401,2.401-2.401C119.774,92.764,120.85,93.839,120.85,95.165z"/>
		<path style="fill:#FFEAAE;" d="M220.968,72.846c0,2.094-1.697,3.792-3.791,3.792c-2.095,0-3.793-1.698-3.793-3.792
			c0-2.094,1.698-3.792,3.793-3.792C219.27,69.054,220.968,70.752,220.968,72.846z"/>
		<path style="fill:#FFEAAE;" d="M276.967,40.056c0,2.095-1.697,3.792-3.793,3.792c-2.093,0-3.79-1.697-3.79-3.792
			c0-2.094,1.697-3.792,3.79-3.792C275.27,36.264,276.967,37.962,276.967,40.056z"/>
		<path style="fill:#FFEAAE;" d="M277.978,80.863c0,1.326-1.075,2.401-2.401,2.401c-1.326,0-2.401-1.075-2.401-2.401
			c0-1.326,1.075-2.401,2.401-2.401C276.903,78.462,277.978,79.538,277.978,80.863z"/>
		<path style="fill:#FFEAAE;" d="M122.029,160.633c0,3.304-2.677,5.982-5.982,5.982c-3.303,0-5.981-2.679-5.981-5.982
			s2.679-5.982,5.981-5.982C119.352,154.651,122.029,157.329,122.029,160.633z"/>
		<path style="fill:#FFEAAE;" d="M73.593,154.651c0,1.326-1.076,2.401-2.401,2.401s-2.4-1.075-2.4-2.401
			c0-1.326,1.075-2.401,2.4-2.401S73.593,153.325,73.593,154.651z"/>
		<path style="fill:#FFEAAE;" d="M142.076,190c0,2.094-1.697,3.792-3.792,3.792c-2.093,0-3.793-1.698-3.793-3.792
			c0-2.094,1.699-3.792,3.793-3.792C140.379,186.208,142.076,187.906,142.076,190z"/>
		<path style="fill:#FFEAAE;" d="M137.777,226.12c0,1.326-1.076,2.402-2.401,2.402c-1.326,0-2.4-1.076-2.4-2.402
			c0-1.326,1.075-2.401,2.4-2.401C136.701,223.719,137.777,224.794,137.777,226.12z"/>
		<path style="fill:#FFEAAE;" d="M280.38,128.84c0,1.326-1.076,2.401-2.401,2.401c-1.326,0-2.4-1.075-2.4-2.401
			c0-1.326,1.074-2.401,2.4-2.401C279.304,126.439,280.38,127.515,280.38,128.84z"/>
		<path style="fill:#FFEAAE;" d="M286.278,105.94c0,2.095-1.697,3.792-3.793,3.792c-2.093,0-3.79-1.697-3.79-3.792
			c0-2.094,1.697-3.792,3.79-3.792C284.581,102.148,286.278,103.846,286.278,105.94z"/>
		<path style="fill:#FFEAAE;" d="M325.732,120.653c0,3.304-2.678,5.982-5.982,5.982c-3.303,0-5.981-2.678-5.981-5.982
			c0-3.303,2.679-5.982,5.981-5.982C323.055,114.671,325.732,117.35,325.732,120.653z"/>
		<path style="fill:#FFEAAE;" d="M308.77,48.2c0,1.326-1.076,2.401-2.401,2.401c-1.326,0-2.4-1.075-2.4-2.401
			c0-1.326,1.074-2.401,2.4-2.401C307.694,45.799,308.77,46.875,308.77,48.2z"/>
		<path style="fill:#FFEAAE;" d="M356.603,62.143c0,1.326-1.075,2.402-2.401,2.402c-1.325,0-2.4-1.076-2.4-2.402
			c0-1.326,1.075-2.401,2.4-2.401C355.528,59.742,356.603,60.817,356.603,62.143z"/>
		<path style="fill:#FFEAAE;" d="M441.207,150.276c0,3.304-2.678,5.982-5.982,5.982c-3.303,0-5.981-2.679-5.981-5.982
			s2.679-5.982,5.981-5.982C438.529,144.294,441.207,146.973,441.207,150.276z"/>
		<path style="fill:#FFEAAE;" d="M428.266,113.297c0,2.095-1.697,3.792-3.792,3.792c-2.094,0-3.791-1.697-3.791-3.792
			c0-2.094,1.697-3.791,3.791-3.791C426.568,109.505,428.266,111.203,428.266,113.297z"/>
		<path style="fill:#FFEAAE;" d="M370.018,178.03c0,2.095-1.697,3.792-3.793,3.792c-2.094,0-3.791-1.697-3.791-3.792
			c0-2.094,1.697-3.792,3.791-3.792C368.32,174.239,370.018,175.936,370.018,178.03z"/>
		<path style="fill:#FFEAAE;" d="M368.546,226.12c0,1.326-1.075,2.402-2.401,2.402c-1.325,0-2.4-1.076-2.4-2.402
			c0-1.326,1.075-2.401,2.4-2.401C367.471,223.719,368.546,224.794,368.546,226.12z"/>
		<path style="fill:#FFEAAE;" d="M403.927,280.091c0,1.325-1.076,2.401-2.402,2.401c-1.325,0-2.4-1.076-2.4-2.401
			c0-1.326,1.075-2.4,2.4-2.4C402.851,277.69,403.927,278.765,403.927,280.091z"/>
		<path style="fill:#FFEAAE;" d="M439.016,277.69c0,2.093-1.696,3.791-3.792,3.791c-2.094,0-3.791-1.698-3.791-3.791
			c0-2.095,1.697-3.793,3.791-3.793C437.319,273.897,439.016,275.596,439.016,277.69z"/>
		<path style="fill:#FFEAAE;" d="M428.962,316.59c0,3.304-2.678,5.982-5.982,5.982c-3.303,0-5.982-2.679-5.982-5.982
			c0-3.304,2.679-5.982,5.982-5.982C426.284,310.607,428.962,313.286,428.962,316.59z"/>
		<path style="fill:#FFEAAE;" d="M325.243,289.238c0,2.093-1.696,3.791-3.792,3.791c-2.094,0-3.791-1.698-3.791-3.791
			c0-2.095,1.697-3.793,3.791-3.793C323.547,285.445,325.243,287.144,325.243,289.238z"/>
		<path style="fill:#FFEAAE;" d="M391.308,364.579c0,1.326-1.075,2.401-2.401,2.401c-1.325,0-2.4-1.075-2.4-2.401
			c0-1.325,1.075-2.4,2.4-2.4C390.232,362.179,391.308,363.254,391.308,364.579z"/>
		<path style="fill:#FFEAAE;" d="M324.823,336.113c0,1.325-1.075,2.401-2.401,2.401c-1.325,0-2.4-1.076-2.4-2.401
			c0-1.326,1.075-2.4,2.4-2.4C323.748,333.713,324.823,334.787,324.823,336.113z"/>
		<path style="fill:#FFEAAE;" d="M302.522,314.072c0,3.304-2.678,5.982-5.982,5.982c-3.303,0-5.981-2.679-5.981-5.982
			s2.679-5.982,5.981-5.982C299.845,308.09,302.522,310.769,302.522,314.072z"/>
		<path style="fill:#FFEAAE;" d="M251.849,373.01c0,3.305-2.677,5.982-5.982,5.982c-3.303,0-5.981-2.678-5.981-5.982
			c0-3.304,2.679-5.982,5.981-5.982C249.171,367.027,251.849,369.706,251.849,373.01z"/>
		<path style="fill:#FFEAAE;" d="M302.887,398.951c0,1.326-1.076,2.401-2.401,2.401c-1.326,0-2.401-1.075-2.401-2.401
			c0-1.326,1.075-2.4,2.401-2.4C301.81,396.551,302.887,397.625,302.887,398.951z"/>
		<path style="fill:#FFEAAE;" d="M212.772,398.952c0,2.094-1.697,3.792-3.793,3.792c-2.094,0-3.79-1.698-3.79-3.792
			c0-2.095,1.697-3.792,3.79-3.792C211.075,395.16,212.772,396.857,212.772,398.952z"/>
		<path style="fill:#FFEAAE;" d="M167.41,338.56c0,2.093-1.697,3.791-3.793,3.791c-2.093,0-3.791-1.698-3.791-3.791
			c0-2.095,1.697-3.793,3.791-3.793C165.713,334.767,167.41,336.465,167.41,338.56z"/>
		<path style="fill:#FFEAAE;" d="M222.606,355.719c0,1.326-1.076,2.402-2.401,2.402s-2.4-1.076-2.4-2.402c0-1.325,1.075-2.4,2.4-2.4
			S222.606,354.394,222.606,355.719z"/>
		<path style="fill:#FFEAAE;" d="M111.364,362.178c0,1.326-1.076,2.401-2.401,2.401s-2.4-1.075-2.4-2.401c0-1.325,1.075-2.4,2.4-2.4
			S111.364,360.853,111.364,362.178z"/>
		<path style="fill:#FFEAAE;" d="M65.279,285.445c0,3.304-2.677,5.982-5.982,5.982c-3.303,0-5.981-2.679-5.981-5.982
			c0-3.304,2.679-5.982,5.981-5.982C62.602,279.463,65.279,282.142,65.279,285.445z"/>
		<path style="fill:#FFEAAE;" d="M200.149,289.238c0,3.304-2.678,5.982-5.982,5.982c-3.303,0-5.982-2.679-5.982-5.982
			c0-3.305,2.678-5.982,5.982-5.982C197.472,283.256,200.149,285.934,200.149,289.238z"/>
		<path style="fill:#FFEAAE;" d="M194.167,320.055c0,1.326-1.077,2.401-2.403,2.401c-1.326,0-2.4-1.075-2.4-2.401
			c0-1.325,1.075-2.4,2.4-2.4C193.091,317.654,194.167,318.729,194.167,320.055z"/>
		<path style="fill:#FFEAAE;" d="M107.778,289.238c0,1.325-1.077,2.401-2.403,2.401s-2.4-1.076-2.4-2.401c0-1.326,1.075-2.4,2.4-2.4
			S107.778,287.912,107.778,289.238z"/>
		<path style="fill:#FFEAAE;" d="M124.43,273.897c0,1.326-1.077,2.401-2.402,2.401c-1.326,0-2.4-1.075-2.4-2.401
			c0-1.326,1.075-2.4,2.4-2.4C123.354,271.497,124.43,272.571,124.43,273.897z"/>
	</g>
</g>
</svg>
